<svg width="50" height="50" viewBox="0 0 50 50" fill="none" xmlns="http://www.w3.org/2000/svg">
<g clip-path="url(#clip0_13_37)">
<path d="M39.3945 1.19141C38.7305 1.8457 38.125 2.51953 38.0371 2.69531C37.8516 3.0957 37.8516 3.92578 38.0371 4.29688L38.1836 4.57031L37.0312 5.01953C36.4062 5.26367 35.0977 5.76172 34.1309 6.13281C33.0371 6.5625 32.334 6.88477 32.2559 7.00195C32.1777 7.10938 31.6602 8.4668 31.1035 10.0195C30.5371 11.5723 30.0293 12.959 29.9707 13.1055L29.8633 13.3789H15.9277H2.00195L1.51367 13.6133C0.927734 13.8965 0.46875 14.3555 0.205078 14.9414C0.00976562 15.3809 0 15.498 0 31.6895V47.998L0.234375 48.4863C0.517578 49.0723 0.976562 49.5312 1.5625 49.7949C2.00195 49.9902 2.11914 50 18.3105 50C34.502 50 34.6191 49.9902 35.0586 49.7949C35.6445 49.5312 36.1035 49.0723 36.3867 48.4863L36.6211 47.998V34.0527C36.6211 26.3867 36.6309 20.1172 36.6504 20.1172C36.7676 20.1172 42.8516 17.8418 43.0078 17.7344C43.1445 17.6465 43.457 16.9531 43.9355 15.7129C44.3359 14.668 44.834 13.3691 45.0391 12.8223L45.4297 11.8164L45.7031 11.9629C46.0742 12.1484 46.9043 12.1484 47.3047 11.9629C47.4805 11.875 48.1543 11.2695 48.8086 10.6055C49.9219 9.48242 50 9.38477 50 9.02344C50 8.65234 49.9023 8.54492 45.6738 4.31641C41.4551 0.0976562 41.3477 0 40.9766 0C40.6152 0 40.5176 0.078125 39.3945 1.19141ZM47.3926 9.78516C46.9727 10.2051 46.5918 10.5469 46.5332 10.5469C46.4062 10.5469 39.4531 3.59375 39.4531 3.4668C39.4531 3.41797 39.7949 3.02734 40.2051 2.61719L40.9668 1.85547L44.5508 5.43945L48.1445 9.0332L47.3926 9.78516ZM43.8477 11.5137C43.6523 12.0312 43.1445 13.3496 42.7246 14.4531C42.3047 15.5566 41.9434 16.4746 41.9336 16.4844C41.8848 16.5625 32.0703 20.1074 31.9238 20.1172C31.8359 20.1172 31.6895 20.0293 31.5918 19.9219C31.4062 19.7168 31.4258 19.6973 33.8965 17.2363L36.377 14.7461L36.8555 14.8926C39.082 15.5664 41.0449 13.4766 40.2344 11.3086C39.8633 10.3125 38.7891 9.57031 37.7148 9.57031C36.9629 9.57031 36.3477 9.83398 35.7715 10.4004C35.0195 11.1621 34.7852 12.0996 35.1074 13.1445L35.2539 13.623L32.7637 16.1035C30.3027 18.5742 30.2832 18.5938 30.0781 18.4082C29.9707 18.3105 29.8828 18.1641 29.8828 18.0762C29.8828 17.9297 33.4473 8.11523 33.5156 8.06641C33.5352 8.05664 34.8633 7.53906 36.4746 6.91406L39.4043 5.78125L41.8066 8.17383L44.2188 10.5664L43.8477 11.5137ZM38.4863 11.4844C38.8477 11.8262 38.9453 12.3145 38.7305 12.7539C38.5547 13.1348 38.0566 13.4766 37.6953 13.4766C37.1484 13.4766 36.5234 12.8418 36.5234 12.2754C36.5234 11.9727 36.8945 11.416 37.207 11.25C37.5684 11.0645 38.1543 11.1719 38.4863 11.4844ZM29.2871 14.9121C29.2871 14.9609 29.1016 15.498 28.877 16.1133L28.4668 17.2363L16.3672 17.2656C5.27344 17.2852 4.24805 17.2949 4.08203 17.4512C3.91602 17.5977 3.90625 18.1836 3.90625 31.6699C3.90625 44.6191 3.91602 45.752 4.07227 45.918C4.21875 46.084 4.79492 46.0938 18.3105 46.0938C31.8164 46.0938 32.4023 46.084 32.5488 45.918C32.7051 45.752 32.7148 44.7266 32.7344 33.6328L32.7637 21.5332L33.8867 21.123C34.502 20.8984 35.0391 20.7129 35.0879 20.7129C35.127 20.7031 35.1465 26.7578 35.1367 34.1602C35.1074 46.8262 35.0977 47.627 34.9316 47.8809C34.8438 48.0273 34.6484 48.2227 34.502 48.3105C34.248 48.4766 33.3594 48.4863 18.3105 48.4863C3.26172 48.4863 2.37305 48.4766 2.11914 48.3105C1.97266 48.2227 1.77734 48.0273 1.68945 47.8809C1.52344 47.627 1.51367 46.7285 1.48438 32.1289C1.46484 23.6133 1.48438 16.416 1.51367 16.1328C1.5918 15.5078 1.93359 15.0586 2.44141 14.9414C2.87109 14.8438 29.2969 14.8145 29.2871 14.9121ZM28.418 18.8574C28.418 19.0039 30.6445 21.2695 30.9863 21.4648L31.25 21.6211V33.125V44.6289H18.3105H5.37109V31.6895V18.75H16.8945C25.1074 18.75 28.418 18.7793 28.418 18.8574Z" fill="white"/>
<path d="M17.7539 23.3105C17.6758 23.4082 17.0508 24.4434 16.3672 25.6055C15.6738 26.7773 15.0781 27.7344 15.0391 27.7344C15 27.7344 14.0234 27.3145 12.8809 26.8066C10.625 25.8008 10.1953 25.7031 9.92188 26.0938C9.83398 26.2109 9.76562 26.4453 9.76562 26.6113C9.76562 27.041 11.709 34.0039 11.8945 34.1992C12.0312 34.3652 12.4609 34.375 18.3105 34.375C24.1602 34.375 24.5898 34.3652 24.7266 34.1992C24.9316 33.9844 26.8555 27.0605 26.8555 26.5723C26.8555 26.1133 26.6211 25.8789 26.1523 25.8789C25.9375 25.8789 25.0879 26.2012 23.75 26.8066C22.6172 27.3145 21.6406 27.7344 21.5918 27.7344C21.543 27.7344 20.9473 26.7773 20.2637 25.6055C19.5801 24.4434 18.9551 23.4082 18.8672 23.3105C18.7695 23.2031 18.5742 23.1445 18.3105 23.1445C18.0371 23.1445 17.8516 23.2031 17.7539 23.3105ZM19.5605 27.5488C20.1855 28.6035 20.7617 29.4922 20.8496 29.5312C21.1816 29.6582 21.4844 29.5605 23.1445 28.8184C24.082 28.3887 24.8633 28.0566 24.873 28.0664C24.8828 28.0762 24.5996 29.1602 24.2285 30.4688L23.5742 32.8613H18.3105H13.0566L12.3926 30.4688C12.0215 29.1602 11.7383 28.0762 11.748 28.0664C11.7578 28.0566 12.5391 28.3887 13.4766 28.8184C14.4141 29.2383 15.3027 29.5898 15.459 29.5898C15.6055 29.5898 15.8008 29.5117 15.8984 29.4141C15.9863 29.3262 16.5723 28.3984 17.1777 27.3633C17.793 26.3281 18.3203 25.5176 18.3594 25.5566C18.3984 25.5957 18.9355 26.4941 19.5605 27.5488Z" fill="white"/>
<path d="M11.8848 36.0156C11.748 36.1719 11.7188 36.4355 11.7188 37.666C11.7188 39.0332 11.7383 39.1504 11.9434 39.4629C12.0605 39.6387 12.3145 39.8926 12.4902 40.0098L12.8223 40.2344H18.3105H23.7988L24.1309 40.0098C24.3066 39.8926 24.5605 39.6387 24.6777 39.4629C24.8828 39.1504 24.9023 39.0332 24.9023 37.6465C24.9023 36.3379 24.8828 36.1426 24.7266 36.0059C24.5605 35.8594 23.9746 35.8398 18.291 35.8398C12.3633 35.8398 12.0312 35.8496 11.8848 36.0156ZM23.4375 37.8809C23.4375 38.8379 23.8379 38.7695 18.3105 38.7695C12.7832 38.7695 13.1836 38.8379 13.1836 37.8809V37.3047H18.3105H23.4375V37.8809Z" fill="white"/>
</g>
<defs>
<clipPath id="clip0_13_37">
<rect width="50" height="50" fill="white"/>
</clipPath>
</defs>
</svg>
