<svg width="50" height="50" viewBox="0 0 50 50" fill="none" xmlns="http://www.w3.org/2000/svg">
<g clip-path="url(#clip0_13_76)">
<path d="M31.9336 0.244059C29.5312 1.00578 16.8359 4.78507 16.6797 4.78507C16.582 4.78507 13.4961 3.83781 9.83398 2.66593C6.17188 1.50382 2.94922 0.537027 2.67578 0.50773C1.66016 0.41984 0.654297 0.986246 0.234375 1.89445L0 2.3925V23.0468C0 42.8417 0.00976562 43.7206 0.185547 44.0917C0.458984 44.6972 1.14258 45.2636 1.875 45.4882C2.20703 45.5956 5.49805 46.6405 9.17969 47.8124C14.6582 49.5507 15.9961 49.9413 16.5527 49.9706C17.207 50.0097 17.5293 49.9218 25.1953 47.6171C29.5703 46.2987 33.2324 45.2148 33.3398 45.2148C33.4375 45.2148 36.5137 46.162 40.1758 47.3241C43.8281 48.496 47.0508 49.4628 47.3242 49.4921C48.3398 49.58 49.2871 49.0429 49.7461 48.1249L50 47.6171V26.9628C50 7.15812 49.9902 6.27921 49.8145 5.90812C49.5215 5.25382 48.8574 4.73625 47.9883 4.46281C47.5586 4.32609 44.2188 3.2714 40.5566 2.10929C33.1152 -0.244223 33.3203 -0.195395 31.9336 0.244059ZM32.3535 43.5644C32.3047 43.5937 29.043 44.5995 25.0879 45.7812C21.1328 46.9726 17.832 47.9687 17.7441 48.0077C17.5879 48.0663 17.5781 46.6112 17.5977 27.2362L17.627 6.41593L25 4.19914L32.373 1.97257L32.4023 22.7343C32.4121 34.1503 32.3926 43.5253 32.3535 43.5644ZM41.1523 4.16007C45.5273 5.54679 47.8809 6.33781 48.0273 6.47453L48.2422 6.66984V26.9726V47.2753L47.998 47.5097C47.8711 47.6464 47.6855 47.7538 47.5879 47.7538C47.4902 47.7538 44.4434 46.8163 40.8203 45.664L34.2285 43.5839L34.1992 22.7538C34.1797 3.29094 34.1895 1.93351 34.3457 1.99211C34.4336 2.03117 37.5 3.00773 41.1523 4.16007ZM9.13086 4.31632C12.7344 5.44914 15.7031 6.40617 15.752 6.44523C15.791 6.47453 15.8105 15.8495 15.8008 27.2655L15.7715 48.0273L14.4531 47.6073C13.7305 47.3827 10.6738 46.4159 7.66602 45.4589C4.0918 44.3359 2.11914 43.662 1.98242 43.5253L1.75781 43.33V23.0273V2.72453L2.00195 2.49015C2.12891 2.35343 2.31445 2.24601 2.41211 2.24601C2.50977 2.24601 5.52734 3.17375 9.13086 4.31632Z" fill="white"/>
<path d="M28.6133 7.95898C23.75 9.49219 22.0117 10.0781 21.8359 10.2539C21.5234 10.5566 21.5625 11.1914 21.9043 11.4844C22.0605 11.6113 22.2852 11.7188 22.4219 11.7188C22.8418 11.7188 29.5215 9.56055 29.7656 9.3457C29.9219 9.19922 29.9805 9.0332 29.9805 8.74023C29.9805 8.02734 29.4141 7.70508 28.6133 7.95898Z" fill="white"/>
<path d="M25.4883 13.9551C23.6914 14.5215 22.1387 15.0293 22.041 15.0684C21.8067 15.1562 21.5625 15.7617 21.6407 16.0645C21.7188 16.3867 22.1289 16.6992 22.4512 16.6992C22.9004 16.6992 29.5215 14.5508 29.7657 14.3359C30.0489 14.0625 30.0586 13.5059 29.7754 13.1445C29.6192 12.9395 29.4922 12.8906 29.1699 12.9004C28.9356 12.9004 27.3535 13.3496 25.4883 13.9551Z" fill="white"/>
<path d="M25.7813 18.8477C21.5918 20.1855 21.8848 20.0684 21.7188 20.4688C21.4648 21.0645 21.8359 21.6797 22.4414 21.6797C22.7637 21.6797 29.1016 19.7266 29.5996 19.4727C29.9023 19.3262 29.9805 19.1602 29.9805 18.6914C29.9805 18.2129 29.6191 17.8711 29.1309 17.8809C28.9258 17.8906 27.4219 18.3203 25.7813 18.8477Z" fill="white"/>
<path d="M25.5371 23.9255C23.711 24.5115 22.1192 25.0388 22.002 25.1072C21.6699 25.283 21.543 25.781 21.7188 26.2009C21.8653 26.5525 22.1094 26.699 22.5586 26.6794C22.6953 26.6794 24.3457 26.1912 26.2207 25.5955C28.6914 24.8142 29.6875 24.4529 29.8145 24.3064C30.2539 23.7693 29.8535 22.8415 29.1797 22.8611C29.0039 22.8611 27.3633 23.3494 25.5371 23.9255Z" fill="white"/>
<path d="M27.7344 27.6658C26.3672 28.1248 26.2012 28.2029 26.0059 28.5057L25.7812 28.8377V34.365C25.7812 39.6678 25.791 39.9021 25.9766 40.2049C26.3867 40.8787 26.8262 40.8982 28.7598 40.283C30.4102 39.7557 30.4785 39.7166 30.7031 39.3455C30.8398 39.1111 30.8594 38.4568 30.8594 33.4471V27.8123L30.5273 27.4803C30.0586 27.0115 29.6289 27.0408 27.7344 27.6658ZM29.0332 38.2908C28.9648 38.3494 27.6953 38.7693 27.5781 38.7693C27.5586 38.7693 27.5391 36.7088 27.5391 34.1795V29.5994L28.3008 29.365L29.0527 29.1307L29.082 33.6814C29.0918 36.1717 29.0723 38.2517 29.0332 38.2908Z" fill="white"/>
<path d="M21.1426 33.5937C19.9609 33.9844 19.6289 34.1309 19.4141 34.375L19.1406 34.668V38.4375C19.1406 41.6113 19.1602 42.2461 19.2871 42.4805C19.4531 42.8027 19.8828 43.0664 20.2539 43.0664C20.5273 43.0664 23.252 42.2363 23.6523 42.0312C24.209 41.748 24.2188 41.6602 24.2188 37.6465C24.2188 33.6816 24.209 33.6035 23.6914 33.2617C23.3008 33.0078 22.7148 33.0859 21.1426 33.5937ZM22.4609 37.8223V40.5859L21.7969 40.8008C21.4258 40.918 21.0742 41.0156 21.0156 41.0156C20.9277 41.0156 20.8984 40.3223 20.8984 38.291V35.5664L21.6113 35.3223C21.9922 35.1855 22.3438 35.0684 22.3926 35.0684C22.4316 35.0586 22.4609 36.2988 22.4609 37.8223Z" fill="white"/>
<path d="M37.7832 8.42773C37.373 8.75 37.3144 9.46289 37.6758 9.79492C37.9101 10.0098 44.5996 12.1094 45.0488 12.1094C45.459 12.1094 45.7617 11.875 45.8594 11.4746C45.9375 11.1719 45.7422 10.6738 45.498 10.5469C45.1074 10.332 38.5254 8.30078 38.2422 8.30078C38.0762 8.30078 37.8711 8.35938 37.7832 8.42773Z" fill="white"/>
<path d="M37.6856 13.5642C37.334 13.9157 37.3145 14.3357 37.627 14.697C37.8027 14.8923 38.4961 15.156 41.2598 16.0349C43.1445 16.6306 44.8438 17.1286 45.0391 17.1286C45.459 17.1384 45.7617 16.8942 45.8496 16.4841C45.9277 16.1521 45.7715 15.7126 45.5274 15.5661C45.2441 15.3806 38.5156 13.281 38.2324 13.281C38.0762 13.281 37.8613 13.3884 37.6856 13.5642Z" fill="white"/>
<path d="M37.6856 18.5449C37.334 18.8965 37.3145 19.3164 37.627 19.6777C37.8027 19.8926 38.4473 20.127 41.3477 21.0547C43.2715 21.6699 44.9512 22.168 45.0781 22.168C45.4102 22.168 45.8008 21.7773 45.8594 21.377C45.9766 20.6836 45.8496 20.6152 41.9434 19.375C40.0195 18.7598 38.3301 18.2617 38.2031 18.2617C38.0762 18.2617 37.8418 18.3887 37.6856 18.5449Z" fill="white"/>
<path d="M36.6211 25.5077C36.1914 25.8007 35.9473 26.1522 35.8399 26.621C35.7031 27.1679 35.7129 38.4472 35.8496 39.0429C35.918 39.3749 36.0547 39.6386 36.2793 39.8632C36.582 40.1659 36.9824 40.3124 40.5469 41.455C44.9707 42.871 45.2637 42.9296 45.9668 42.4608C46.7188 41.9628 46.6895 42.3143 46.6602 35.0878L46.6309 28.662L46.4063 28.3397C46.2793 28.164 46.0547 27.9589 45.8984 27.8808C45.7422 27.8026 43.8867 27.1874 41.7676 26.5136C37.5684 25.1854 37.207 25.1171 36.6211 25.5077ZM41.2109 28.203L44.8731 29.3651L44.9024 35.1561L44.9219 40.9374L44.7168 40.8886C44.5996 40.8593 42.9297 40.3319 41.0059 39.7265L37.5 38.6229V32.8319C37.5 29.6581 37.5098 27.0507 37.5293 27.0507C37.5488 27.0507 39.1992 27.5683 41.2109 28.203Z" fill="white"/>
<path d="M4.0918 6.66992C3.91602 6.78711 3.66211 7.04102 3.54492 7.2168L3.32031 7.54883V13.9648V20.3809L3.53516 20.7031C3.66211 20.8789 3.86719 21.1035 4.00391 21.2109C4.31641 21.4355 12.1484 23.9258 12.5488 23.9258C13.0469 23.916 13.6328 23.584 13.9355 23.1348L14.209 22.7148V16.3672C14.209 9.29688 14.2383 9.66797 13.5547 9.15039C13.3398 8.99414 11.8652 8.47656 9.33594 7.67578C5.06836 6.32812 4.70703 6.25977 4.0918 6.66992ZM7.08008 8.82812C8.04688 9.14062 9.6582 9.64844 10.6738 9.9707L12.5 10.5566V16.3086C12.5 20.293 12.4707 22.0703 12.3926 22.0703C12.3438 22.0703 10.6738 21.5527 8.68164 20.9277L5.07812 19.7852V13.9844C5.07812 9.38477 5.10742 8.19336 5.20508 8.23242C5.26367 8.25195 6.11328 8.52539 7.08008 8.82812Z" fill="white"/>
<path d="M4.7168 27.0216C4.4043 27.0802 4.10156 27.5099 4.10156 27.8907C4.10156 28.5255 4.25781 28.6036 7.97852 29.7755C11.2598 30.8107 11.7871 30.9376 12.1582 30.8009C12.5879 30.6349 12.7051 29.7072 12.3242 29.3654C12.1875 29.2482 5.61523 27.1095 5.07812 27.0118C5 26.9923 4.83398 27.0021 4.7168 27.0216Z" fill="white"/>
<path d="M4.3457 32.2754C4.17969 32.4316 4.10156 32.6172 4.10156 32.8516C4.10156 33.5156 4.23828 33.584 7.95898 34.7656C9.83398 35.3516 11.5332 35.8398 11.7383 35.8398C12.1582 35.8398 12.4609 35.6055 12.5586 35.2051C12.6367 34.9023 12.4414 34.4043 12.1973 34.2773C11.7969 34.0527 5.21484 32.0312 4.91211 32.0312C4.6875 32.0312 4.50195 32.1094 4.3457 32.2754Z" fill="white"/>
<path d="M4.3457 37.2558C4.02343 37.5683 4.02343 38.0761 4.32617 38.4276C4.50195 38.6229 5.19531 38.8866 7.95898 39.7655C9.84375 40.3612 11.543 40.8593 11.7383 40.8593C12.4023 40.869 12.7832 40.1952 12.4609 39.5702C12.2852 39.2382 12.5684 39.3456 7.98828 37.9003C6.45507 37.412 5.05859 37.0116 4.88281 37.0116C4.6875 37.0116 4.49218 37.0995 4.3457 37.2558Z" fill="white"/>
</g>
<defs>
<clipPath id="clip0_13_76">
<rect width="50" height="50" fill="white"/>
</clipPath>
</defs>
</svg>
