<svg width="50" height="50" viewBox="0 0 50 50" fill="none" xmlns="http://www.w3.org/2000/svg">
<path d="M29.1992 0.0683594C28.7109 0.117188 27.5879 0.371094 26.8945 0.585938C23.7402 1.55273 21.3574 3.94531 20.3223 7.17773C19.7656 8.92578 19.707 9.53125 19.6582 14.082L19.6094 18.2617H15.8105H12.0117V22.7539V27.2461H15.8203H19.6289V38.623V50H24.2676H28.9062V38.623V27.2461H32.7441H36.5723L37.1387 22.8223C37.4512 20.4004 37.7051 18.3789 37.6953 18.3301C37.6953 18.291 35.7129 18.2617 33.291 18.2617H28.8867L28.9258 14.7656C28.9648 11.4453 28.9746 11.25 29.1895 10.5957C29.3652 10.0488 29.5215 9.81445 29.9219 9.41406C30.8398 8.49609 31.8555 8.30078 35.8691 8.30078H37.9883V4.30664V0.3125L37.4316 0.253906C35.4492 0.0390625 30.5273 -0.078125 29.1992 0.0683594Z" fill="white"/>
</svg>
