<svg width="50" height="50" viewBox="0 0 50 50" fill="none" xmlns="http://www.w3.org/2000/svg">
<g clip-path="url(#clip0_18_2)">
<path d="M23.7597 5.25375C23.4863 5.3514 23.0859 5.54672 22.8808 5.68344C22.1874 6.14242 0.126899 24.5799 0.0683055 24.7459C-0.0586476 25.0584 -5.38826e-05 25.6346 0.165962 25.8787C0.253852 26.0155 0.77143 26.6405 1.29877 27.2752C2.38276 28.5545 2.51948 28.6327 3.2812 28.4666C3.39838 28.4373 8.32026 24.3944 14.2187 19.4823C20.1171 14.5702 24.9706 10.5467 24.9999 10.5467C25.0292 10.5467 29.9023 14.5897 35.83 19.5213C44.0234 26.3475 46.6699 28.5057 46.9042 28.5448C47.08 28.5643 47.3339 28.5448 47.4804 28.4959C47.705 28.4178 49.3261 26.6112 49.8339 25.8787C50.0585 25.5565 50.0488 24.8924 49.8144 24.5994C49.707 24.4725 48.1054 23.1151 46.2499 21.5819L42.8808 18.7987L42.871 12.2752V5.74203L42.5878 5.45883L42.3046 5.17562H38.916C35.1953 5.17562 35.1757 5.17562 34.9706 5.78109C34.9023 5.9764 34.8632 7.19711 34.8632 9.09164V12.1092L30.996 8.8768C28.33 6.65023 26.9531 5.56625 26.5722 5.39047C25.8398 5.04867 24.5117 4.98031 23.7597 5.25375Z" fill="#9746fd"/>
<path d="M16.0449 20.4395L7.12891 27.7832V35.5957V43.418L7.35352 43.8477C7.48047 44.1016 7.74414 44.4043 7.98828 44.5801L8.41797 44.873L14.7559 44.9023L21.0938 44.9219V38.9648V33.0078H25H28.9062V38.9648V44.9219L35.2441 44.9023L41.582 44.873L42.0117 44.5801C42.2363 44.4141 42.5293 44.1016 42.6465 43.8965L42.8711 43.5059V35.6445V27.7832L33.9844 20.459C29.0918 16.4258 25.0586 13.125 25.0195 13.1152C24.9805 13.0957 20.9375 16.3965 16.0449 20.4395Z" fill="#9746fd"/>
</g>
<defs>
<clipPath id="clip0_18_2">
<rect width="50" height="50" fill="#9746fd"/>
</clipPath>
</defs>
</svg>
