<svg width="50" height="50" viewBox="0 0 50 50" fill="none" xmlns="http://www.w3.org/2000/svg">
<g clip-path="url(#clip0_17_16)">
<path d="M10.0586 0.205078C6.32812 0.986328 3.24219 3.27148 1.47461 6.5625C0.800781 7.80273 0.361328 9.0918 0.0976562 10.5859C0.0390625 10.9668 0 15.9668 0 25.0293C0 38.6426 0 38.9062 0.205078 39.873C0.742188 42.5293 2.00195 44.8242 3.90625 46.6113C5.66406 48.2617 7.69531 49.3066 10.127 49.7949C11.0938 50 11.3574 50 25 50C38.6426 50 38.9062 50 39.873 49.7949C42.5293 49.2578 44.8242 47.998 46.6113 46.0938C48.2617 44.3359 49.3066 42.3047 49.7949 39.873C50 38.9062 50 38.6426 50 25.0293C50 15.9668 49.9609 10.9668 49.9023 10.5859C49.1992 6.5332 46.8164 3.22266 43.2715 1.38672C42.1387 0.800781 41.2012 0.46875 39.873 0.205078C38.9062 0 38.6621 0 24.9316 0.00976562C11.3965 0.00976562 10.957 0.0195312 10.0586 0.205078ZM39.502 4.47266C42.5684 5.33203 44.7266 7.50977 45.5273 10.5469L45.752 11.377V25V38.623L45.5273 39.4531C44.7168 42.5098 42.5098 44.7168 39.4531 45.5273L38.623 45.752H25H11.377L10.5469 45.5273C7.49023 44.7168 5.2832 42.5098 4.47266 39.4531L4.24805 38.623V25V11.377L4.47266 10.5469C5.3418 7.25586 7.83203 4.95117 11.1621 4.3457C11.7285 4.23828 14.5801 4.21875 25.293 4.22852L38.7207 4.24805L39.502 4.47266Z" fill="white"/>
<path d="M37.3926 8.52535C37.0801 8.65231 36.7286 8.84762 36.5918 8.95504C35.0586 10.1562 34.9805 12.5 36.4258 13.8086C36.9239 14.2578 37.2364 14.414 37.9493 14.5507C39.375 14.8339 40.7715 14.1211 41.3965 12.8027C41.7579 12.0312 41.7579 10.8203 41.4161 10.1074C41.1036 9.49215 40.5079 8.89645 39.8926 8.59371C39.1797 8.24215 38.125 8.21285 37.3926 8.52535Z" fill="white"/>
<path d="M22.7832 12.6465C20.9961 12.9785 18.9355 13.8672 17.5098 14.9316C16.5527 15.6445 15.2246 17.0215 14.6289 17.9199C13.6426 19.4141 12.9395 21.1621 12.6465 22.8223C12.4609 23.9355 12.4609 26.0645 12.6465 27.1777C13.0762 29.5996 14.2188 31.8652 15.918 33.6328C17.793 35.5859 20.2148 36.8945 22.8223 37.3535C23.9355 37.5391 26.0645 37.5391 27.1777 37.3535C32.3242 36.4453 36.4453 32.3242 37.3535 27.1777C37.5391 26.0645 37.5391 23.9355 37.3535 22.8223C37.0605 21.1523 36.3574 19.4141 35.3613 17.9199C34.7754 17.0215 33.4375 15.6348 32.5098 14.9414C31.0352 13.8477 28.9941 12.9688 27.1777 12.6465C26.1328 12.4707 23.7793 12.4707 22.7832 12.6465ZM27.002 16.9922C29.9609 17.7539 32.2168 20 33.0176 22.998C33.1836 23.6035 33.2324 24.0625 33.2324 25C33.2324 25.9375 33.1836 26.3965 33.0176 27.002C32.2168 30 30 32.207 27.002 33.0176C25.8984 33.3203 24.1016 33.3203 22.998 33.0176C20 32.207 17.7832 30 16.9824 27.002C16.6895 25.9082 16.6895 24.0918 16.9824 22.998C18.1738 18.5352 22.627 15.8691 27.002 16.9922Z" fill="white"/>
</g>
<defs>
<clipPath id="clip0_17_16">
<rect width="50" height="50" fill="white"/>
</clipPath>
</defs>
</svg>
