<svg width="50" height="50" viewBox="0 0 50 50" fill="none" xmlns="http://www.w3.org/2000/svg">
<path d="M30.0391 0.185547C29.4238 0.595703 29.3945 0.722656 29.3945 2.97852C29.3945 4.82422 29.4141 5.05859 29.5801 5.3125C29.8828 5.76172 30.2539 5.95703 30.8594 5.95703C31.4648 5.95703 31.8359 5.76172 32.1387 5.3125C32.3047 5.05859 32.3242 4.82422 32.3242 2.97852C32.3242 1.13281 32.3047 0.898438 32.1387 0.644531C31.8359 0.195312 31.4648 0 30.8594 0C30.498 0 30.2344 0.0585938 30.0391 0.185547Z" fill="white"/>
<path d="M21.3867 3.59384C20.6934 3.93564 20.3809 4.95126 20.7422 5.64462C20.957 6.03525 23.252 8.27157 23.5645 8.39853C24.707 8.81845 25.8398 7.86142 25.625 6.66025C25.5762 6.36728 25.332 6.06454 24.2773 4.99032C23.5742 4.27743 22.8613 3.62314 22.6856 3.55478C22.2559 3.36923 21.7969 3.379 21.3867 3.59384Z" fill="white"/>
<path d="M39.0137 3.55478C38.8574 3.6329 38.1445 4.27743 37.4414 4.99032C36.3867 6.06454 36.1426 6.36728 36.0937 6.66025C35.8789 7.86142 37.0117 8.81845 38.1543 8.39853C38.4668 8.27157 40.7617 6.03525 40.9765 5.64462C41.1914 5.23447 41.1523 4.48251 40.8887 4.09189C40.4883 3.48642 39.6777 3.26181 39.0137 3.55478Z" fill="white"/>
<path d="M28.4863 9.18945C28.2813 9.36523 28.0664 9.60938 28.0078 9.75586C27.959 9.89258 27.7246 10.957 27.4902 12.1094C26.8457 15.3125 26.5918 16.2207 26.084 17.2852C25.3809 18.7305 24.4629 19.5117 21.875 20.8691C21.2012 21.2207 19.9121 21.9043 19.0137 22.3828C18.1055 22.8613 17.3633 23.2422 17.3438 23.2227C16.6113 22.0312 16.0254 21.4746 15.0391 21.0059L14.502 20.752L9.27734 20.7227C3.4668 20.6836 3.63281 20.6738 3.22266 21.3379C3.02734 21.6504 3.02734 21.875 3.02734 35.3613C3.02734 48.6328 3.03711 49.082 3.21289 49.3555C3.31055 49.502 3.52539 49.7168 3.67188 49.8145C3.93555 49.9902 4.21875 50 9.04297 50C13.877 50 14.1602 49.9902 14.6973 49.8047C15.3711 49.5703 16.0352 49.1602 16.4844 48.7012L16.7969 48.3789L17.9199 48.7012C19.1699 49.0527 21.4453 49.5215 23.1445 49.7754C24.1113 49.9121 25.4297 49.9414 32.3633 49.9707C40.2148 50.0098 40.4688 50 41.0254 49.8145C42.4023 49.3555 43.4375 48.291 43.8965 46.8945C44.0234 46.4941 44.0527 46.1621 44.0137 45.4297C43.9844 44.9121 43.9356 44.3652 43.8965 44.209C43.8379 44.0137 43.8574 43.9453 43.9648 43.9453C44.043 43.9453 44.3262 43.8281 44.5898 43.6914C46.1621 42.8613 46.9727 41.4941 46.9727 39.6875C46.9727 38.7695 46.6992 37.8516 46.25 37.2656C45.9375 36.8457 45.9375 36.7871 46.25 36.3672C46.3965 36.1816 46.6113 35.7422 46.7383 35.3906C47.1973 34.1309 46.9824 32.3633 46.25 31.4062C45.9375 30.9863 45.9375 30.9277 46.25 30.5078C46.9434 29.5996 47.1875 27.8125 46.7871 26.6309C46.3281 25.293 45.3125 24.2773 43.9648 23.8184C43.4668 23.6426 43.1055 23.6328 39.043 23.6328C36.6406 23.6328 34.668 23.6035 34.668 23.5742C34.668 23.5449 34.873 23.0566 35.1172 22.4805C35.8203 20.8496 36.3086 19.4043 36.5234 18.3594C36.7676 17.1777 36.7773 15.6055 36.5625 14.6191C36.3672 13.7109 35.6836 12.3145 35.0879 11.5723C33.75 9.92188 31.6504 8.88672 29.6484 8.88672C28.9063 8.88672 28.8281 8.90625 28.4863 9.18945ZM31.3379 12.3828C32.3633 12.9297 33.2813 14.1016 33.5938 15.2637C33.7793 15.957 33.6719 17.4414 33.3496 18.5059C33.2129 18.9844 32.7051 20.332 32.2266 21.4844L31.3574 23.584L30.0586 23.6328C28.6523 23.6816 28.4668 23.75 28.1152 24.2871C27.8711 24.6582 27.8711 25.5371 28.1152 25.9082C28.5352 26.5527 28.0469 26.5039 35.8398 26.5625C42.7051 26.6113 42.9297 26.6211 43.2422 26.8066C44.1797 27.373 44.1895 28.6523 43.2617 29.2285C42.9492 29.4238 42.7539 29.4434 40.9668 29.4922C38.8477 29.541 38.7402 29.5703 38.3691 30.1465C38.125 30.5176 38.125 31.3965 38.3691 31.7676C38.7402 32.3438 38.8477 32.373 40.9668 32.4219C43.1348 32.4805 43.3691 32.5391 43.7598 33.1641C44.1504 33.8086 43.916 34.707 43.2422 35.1074C42.959 35.2832 42.6856 35.3027 40.9668 35.3516C38.8477 35.4004 38.7402 35.4297 38.3691 36.0059C38.125 36.377 38.125 37.2559 38.3691 37.627C38.7402 38.2031 38.8477 38.2324 40.9668 38.2812C42.7539 38.3301 42.9492 38.3496 43.2617 38.5449C43.7109 38.8184 43.9453 39.2383 43.9453 39.7461C43.9453 40.2539 43.7109 40.6738 43.2617 40.9473C42.9492 41.1426 42.7539 41.1621 40.9668 41.2109C39.3457 41.25 38.9746 41.2891 38.7793 41.4258C38.3691 41.7188 38.1836 42.0996 38.1836 42.6562C38.1836 43.5645 38.6523 44.0625 39.6094 44.1895C40.4883 44.3066 41.0156 44.834 41.0156 45.5859C41.0156 46.1133 40.7813 46.5234 40.332 46.8066L39.9902 47.0215L32.8613 47.0117C26.7676 47.0117 25.5273 46.9824 24.3164 46.8457C22.5293 46.6309 20.7324 46.2891 19.0234 45.8203L17.6758 45.459V36.0352V26.6113L19.5605 25.5762C20.5859 25 22.1973 24.1309 23.1348 23.6426C25.2539 22.5293 26.3281 21.8262 27.1582 20.9961C28.7695 19.3945 29.541 17.5098 30.4297 12.959C30.5273 12.4414 30.6445 12.1094 30.7129 12.1094C30.7813 12.1094 31.0547 12.2266 31.3379 12.3828ZM13.9453 23.877C14.1211 23.9844 14.3652 24.2285 14.4824 24.4141L14.6973 24.7559V35.3516V45.9473L14.4824 46.2891C14.3652 46.4746 14.1211 46.7188 13.9453 46.8262C13.6426 47.0117 13.418 47.0215 9.79492 47.0508L5.95703 47.0801V35.3516V23.623L9.79492 23.6523C13.418 23.6816 13.6426 23.6914 13.9453 23.877Z" fill="white"/>
<path d="M9.53125 41.3965C9.08203 41.6992 8.88672 42.0703 8.88672 42.6758C8.88672 43.6035 9.42383 44.1406 10.3516 44.1406C11.2793 44.1406 11.8164 43.6035 11.8164 42.6758C11.8164 41.748 11.2793 41.2109 10.3516 41.2109C9.99023 41.2109 9.72656 41.2695 9.53125 41.3965Z" fill="white"/>
</svg>
