<svg width="50" height="50" viewBox="0 0 50 50" fill="none" xmlns="http://www.w3.org/2000/svg">
<g clip-path="url(#clip0_13_42)">
<path d="M1.12305 0.927734L0.878906 1.16211V4.02344C0.878906 6.46484 0.898438 6.92383 1.03516 7.10938C1.18164 7.32422 1.19141 7.32422 4.18945 7.32422C6.98242 7.32422 7.20703 7.31445 7.35352 7.14844C7.5 6.99219 7.51953 6.62109 7.51953 4.02344V1.08398L7.26562 0.888672C7.01172 0.693359 6.89453 0.683594 4.17969 0.683594H1.35742L1.12305 0.927734ZM6.15234 4.00391V5.95703H4.19922H2.24609V4.00391V2.05078H4.19922H6.15234V4.00391Z" fill="white"/>
<path d="M42.8223 0.800781C42.7148 0.859375 42.5977 0.957031 42.5586 1.01562C42.5195 1.07422 42.4805 2.44141 42.4805 4.0625C42.4805 6.78711 42.4902 7.01172 42.6562 7.1582C42.8125 7.30469 43.1836 7.32422 45.8301 7.32422C48.8086 7.32422 48.8184 7.32422 48.9648 7.10938C49.1016 6.92383 49.1211 6.46484 49.1211 4.02344V1.16211L48.877 0.927734L48.6426 0.683594H45.8301C43.916 0.693359 42.959 0.722656 42.8223 0.800781ZM47.7539 4.00391V5.95703H45.8008H43.8477V4.00391V2.05078H45.8008H47.7539V4.00391Z" fill="white"/>
<path d="M9.53125 3.52539C9.21875 3.76953 9.17968 4.27734 9.45312 4.52148C9.60937 4.66797 9.90234 4.6875 11.5039 4.6875C13.3203 4.6875 13.3691 4.67773 13.5156 4.47266C13.75 4.14062 13.7109 3.75977 13.418 3.52539C13.1738 3.33984 13.0273 3.32031 11.4746 3.32031C9.92187 3.32031 9.77539 3.33984 9.53125 3.52539Z" fill="white"/>
<path d="M14.873 3.57422C14.6777 3.76953 14.6386 3.87695 14.6875 4.13086C14.7949 4.6582 14.9023 4.6875 16.8847 4.6875C17.8808 4.6875 18.75 4.64844 18.8183 4.60938C18.9941 4.50195 19.1113 4.08203 19.0429 3.80859C18.9453 3.38867 18.6426 3.32031 16.8164 3.32031C15.1367 3.32031 15.1269 3.32031 14.873 3.57422Z" fill="white"/>
<path d="M20.459 3.4375C20.1855 3.59375 20.1172 3.71094 20.1172 4.0625C20.1172 4.64844 20.2637 4.6875 22.3438 4.6875C24.1602 4.6875 24.209 4.67773 24.3555 4.47266C24.5801 4.16016 24.5508 3.83789 24.2676 3.56445C24.0332 3.32031 24.0039 3.32031 22.3438 3.32031C21.2695 3.32031 20.5859 3.36914 20.459 3.4375Z" fill="white"/>
<path d="M25.7324 3.56445C25.4492 3.83789 25.4199 4.16016 25.6445 4.47266C25.791 4.67773 25.8398 4.6875 27.6758 4.6875C29.375 4.6875 29.58 4.66797 29.7168 4.51172C29.8144 4.41406 29.8828 4.19922 29.8828 4.04297C29.873 3.39844 29.6386 3.32031 27.6367 3.32031C25.9961 3.32031 25.9668 3.32031 25.7324 3.56445Z" fill="white"/>
<path d="M31.1719 3.48633C30.8789 3.74023 30.8496 4.27734 31.1133 4.53125C31.2403 4.6582 31.5625 4.6875 33.0957 4.6875C35.0977 4.6875 35.2051 4.6582 35.3125 4.13086C35.3613 3.87695 35.3223 3.76953 35.127 3.57422C34.8731 3.32031 34.8731 3.32031 33.125 3.32031C31.5918 3.32031 31.3477 3.33984 31.1719 3.48633Z" fill="white"/>
<path d="M36.5821 3.52539C36.2891 3.75977 36.25 4.14062 36.4844 4.47266C36.6309 4.67773 36.6797 4.6875 38.5156 4.6875C40.2149 4.6875 40.4199 4.66797 40.5567 4.51172C40.8106 4.22852 40.7715 3.75977 40.4688 3.52539C40.2246 3.33984 40.0781 3.32031 38.5254 3.32031C36.9727 3.32031 36.8262 3.33984 36.5821 3.52539Z" fill="white"/>
<path d="M35.0195 7.55859C34.5801 7.68555 34.2578 7.97852 30.498 11.7285C28.2812 13.9551 26.4355 15.8789 26.3965 15.9961C26.3086 16.3477 26.6504 16.7383 27.0605 16.7773C27.3828 16.8066 27.5586 16.6309 31.3476 12.8418C34.7851 9.4043 35.3418 8.88672 35.5957 8.88672C35.8398 8.88672 36.25 9.24805 38.4961 11.5039C40.6347 13.6426 41.1133 14.1602 41.1133 14.3848C41.1133 14.5703 40.9375 14.8242 40.4883 15.3027L39.8633 15.9668L38.7402 14.8633C37.5683 13.7109 37.373 13.6133 36.9336 13.9258C36.7773 14.0332 36.7187 14.1699 36.7187 14.4336C36.7187 14.7559 36.8164 14.8926 37.793 15.8691L38.8672 16.9434L37.666 18.1445L36.4746 19.3359L35.8887 18.75C35.3906 18.2422 35.2637 18.1641 34.9414 18.1641C34.6777 18.1641 34.541 18.2227 34.4336 18.3789C34.1504 18.7891 34.2383 19.043 34.8828 19.6973L35.498 20.3125L34.3457 21.4648C33.3789 22.4316 33.2031 22.6562 33.2031 22.9102C33.2031 23.291 33.4668 23.5352 33.8965 23.5352C34.209 23.5352 34.5117 23.252 38.2031 19.5508C40.3808 17.3633 42.2363 15.4395 42.3242 15.2637C42.5488 14.8242 42.5293 13.9258 42.2851 13.4277C42.0019 12.832 36.875 7.77344 36.4258 7.63672C35.8008 7.45117 35.5078 7.43164 35.0195 7.55859Z" fill="white"/>
<path d="M3.71094 9.47275C3.52539 9.6583 3.51562 9.79502 3.51562 11.4552C3.51562 13.1251 3.52539 13.2618 3.71094 13.4571C3.96484 13.7306 4.42383 13.7403 4.6875 13.4767C4.87305 13.2911 4.88281 13.1544 4.88281 11.4747C4.88281 9.79502 4.87305 9.6583 4.6875 9.47275C4.58008 9.36533 4.36523 9.27744 4.19922 9.27744C4.0332 9.27744 3.81836 9.36533 3.71094 9.47275Z" fill="white"/>
<path d="M9.43358 9.42389C9.09178 9.77546 9.02342 9.54108 11.7578 18.086L12.4707 20.3028L23.3398 31.1231C32.3926 40.1465 34.2578 41.9532 34.5019 41.9727C34.7754 42.002 35.0781 41.7286 38.3984 38.4083C41.5332 35.2735 41.9922 34.7755 41.9922 34.5215C41.9922 34.2579 40.7324 32.9688 31.084 23.3301L20.166 12.4219L15.1758 10.8497C12.4316 9.98053 10.0488 9.27741 9.8828 9.27741C9.71678 9.27741 9.52147 9.34577 9.43358 9.42389ZM14.6582 12.1583C16.6113 12.7735 18.2812 13.3008 18.3496 13.3301C18.4473 13.3692 17.6758 14.209 15.9668 15.918C14.5703 17.3145 13.3984 18.418 13.3691 18.379C13.3008 18.3106 11.0351 11.2208 11.0351 11.0938C11.0351 11.0059 10.8594 10.9571 14.6582 12.1583ZM33.6621 33.6622L30.7617 36.5723L22.4121 28.2227L14.0625 19.8731L16.9629 16.9727L19.873 14.0626L28.2226 22.4122L36.5723 30.7618L33.6621 33.6622ZM37.4316 37.4219L34.5215 40.3321L33.1641 38.9747L31.8066 37.6173L34.6777 34.6778L37.5488 31.7481L38.9453 33.1348L40.332 34.5215L37.4316 37.4219Z" fill="white"/>
<path d="M19.1602 18.9453C18.8672 19.0723 18.6914 19.4727 18.8086 19.7852C18.8574 19.9219 21.5918 22.6465 24.8926 25.8301C30.4102 31.1816 30.9082 31.6406 31.211 31.6406C31.6114 31.6406 31.9336 31.3477 31.9336 30.9863C31.9336 30.6836 31.9239 30.6641 25 23.9551C22.2266 21.2695 19.8731 19.0234 19.7559 18.9648C19.5117 18.8281 19.4629 18.8281 19.1602 18.9453Z" fill="white"/>
<path d="M45.3125 9.47275C45.127 9.6583 45.1172 9.79502 45.1172 11.4747C45.1172 13.1544 45.127 13.2911 45.3125 13.4767C45.5762 13.7403 46.0352 13.7306 46.2891 13.4571C46.4746 13.2618 46.4844 13.1251 46.4844 11.4552C46.4844 9.79502 46.4746 9.6583 46.2891 9.47275C46.1816 9.36533 45.9668 9.27744 45.8008 9.27744C45.6348 9.27744 45.4199 9.36533 45.3125 9.47275Z" fill="white"/>
<path d="M3.75977 14.8926C3.51562 15.127 3.51562 15.1465 3.51562 16.8652C3.51562 18.8867 3.56445 19.043 4.18945 19.043C4.85352 19.043 4.88281 18.9355 4.88281 16.8652V15.0488L4.62891 14.8535C4.28711 14.5898 4.05273 14.5996 3.75977 14.8926Z" fill="white"/>
<path d="M45.3711 14.8535L45.1172 15.0488V16.8848C45.1172 18.9551 45.1465 19.043 45.8301 19.043C46.4355 19.043 46.4844 18.8672 46.4844 16.8652C46.4844 15.1465 46.4844 15.127 46.2402 14.8926C45.9473 14.5996 45.7129 14.5898 45.3711 14.8535Z" fill="white"/>
<path d="M3.71094 20.3124C3.52539 20.498 3.51562 20.6347 3.51562 22.3046V24.1113L3.76953 24.3066C4.10156 24.5605 4.43359 24.5702 4.6875 24.3163C4.87305 24.1308 4.88281 23.9941 4.88281 22.2851C4.88281 20.6249 4.86328 20.4199 4.70703 20.2831C4.46289 20.0585 3.94531 20.0781 3.71094 20.3124Z" fill="white"/>
<path d="M45.2832 20.2929C45.1367 20.4491 45.1172 20.7421 45.1172 22.2949C45.1172 23.9941 45.127 24.1308 45.3125 24.3163C45.5664 24.5702 45.8984 24.5605 46.2305 24.3066L46.4844 24.1113V22.3046C46.4844 20.6347 46.4746 20.498 46.2891 20.3124C46.0352 20.0585 45.498 20.0585 45.2832 20.2929Z" fill="white"/>
<path d="M3.76953 25.6933L3.51562 25.8886V27.6952C3.51562 29.3652 3.52539 29.5019 3.71094 29.6874C3.96484 29.9413 4.50195 29.9413 4.7168 29.707C4.86328 29.5507 4.88281 29.2577 4.88281 27.705C4.88281 26.0058 4.87305 25.8691 4.6875 25.6835C4.43359 25.4296 4.10156 25.4394 3.76953 25.6933Z" fill="white"/>
<path d="M45.3125 25.6838C45.127 25.8694 45.1172 26.0061 45.1172 27.7151C45.1172 29.3752 45.1367 29.5803 45.293 29.717C45.5371 29.9417 46.0547 29.9221 46.2891 29.6877C46.4746 29.5022 46.4844 29.3655 46.4844 27.6956V25.8889L46.2305 25.6936C45.8984 25.4397 45.5664 25.4299 45.3125 25.6838Z" fill="white"/>
<path d="M15.9179 26.4356C15.6347 26.5332 7.90036 34.3262 7.69528 34.7071C7.40232 35.2735 7.47068 36.2598 7.85153 36.7969C8.25193 37.3829 13.3105 42.2657 13.6328 42.3829C14.0234 42.5391 14.8535 42.5196 15.2441 42.3536C15.6347 42.1875 23.4375 34.4043 23.5742 34.0332C23.7109 33.6914 23.3789 33.2618 22.959 33.2227C22.666 33.1934 22.539 33.2911 21.4746 34.336L20.3125 35.4883L19.209 34.3946C18.5254 33.7305 18.0175 33.3008 17.9004 33.3008C17.5586 33.3008 17.1875 33.6719 17.1875 34.0137C17.1875 34.2774 17.3437 34.4825 18.2617 35.4004L19.3359 36.4746L18.1347 37.6758L16.9433 38.8672L16.3574 38.2813C15.8789 37.8028 15.7226 37.6954 15.459 37.6954C15.2636 37.6954 15.0586 37.7735 14.9414 37.8907C14.5996 38.2325 14.6875 38.5352 15.3515 39.2188L15.957 39.8536L15.332 40.4786C14.3554 41.4649 14.5703 41.5723 11.4941 38.4961C9.27732 36.2793 8.88669 35.8399 8.88669 35.5957C8.88669 35.3516 9.4531 34.7461 12.8418 31.3477C16.3281 27.8516 16.7968 27.3536 16.7968 27.0899C16.7968 26.6602 16.3183 26.2989 15.9179 26.4356Z" fill="white"/>
<path d="M3.67188 31.1719C3.54492 31.3477 3.51562 31.7188 3.51562 33.1348C3.51562 34.8535 3.51562 34.873 3.75977 35.1074C3.88672 35.2441 4.0625 35.3516 4.15039 35.3516C4.3457 35.3516 4.70703 35.166 4.80469 35.0195C4.84375 34.9609 4.88281 34.0918 4.88281 33.0957C4.88281 31.4551 4.86328 31.2598 4.70703 31.123C4.43359 30.8789 3.85742 30.9082 3.67188 31.1719Z" fill="white"/>
<path d="M45.2832 31.1328C45.1367 31.2891 45.1172 31.5723 45.1172 33.1152C45.1172 34.1016 45.1562 34.9609 45.1953 35.0195C45.293 35.166 45.6543 35.3516 45.8496 35.3516C45.9375 35.3516 46.1133 35.2441 46.2402 35.1074C46.4844 34.873 46.4844 34.8535 46.4844 33.1348C46.4844 31.1133 46.4355 30.957 45.8105 30.957C45.5762 30.957 45.3809 31.0254 45.2832 31.1328Z" fill="white"/>
<path d="M3.71094 36.5234C3.52539 36.709 3.51562 36.8457 3.51562 38.5254C3.51562 40.2051 3.52539 40.3418 3.71094 40.5273C3.96484 40.7812 4.43359 40.7812 4.6875 40.5273C4.87305 40.3418 4.88281 40.2051 4.88281 38.5254C4.88281 36.8457 4.87305 36.709 4.6875 36.5234C4.58008 36.416 4.36523 36.3281 4.19922 36.3281C4.0332 36.3281 3.81836 36.416 3.71094 36.5234Z" fill="white"/>
<path d="M45.3125 36.5234C45.127 36.709 45.1172 36.8457 45.1172 38.5254C45.1172 40.2051 45.127 40.3418 45.3125 40.5273C45.5664 40.7813 46.0352 40.7813 46.2891 40.5273C46.4746 40.3418 46.4844 40.2051 46.4844 38.5449C46.4844 36.875 46.4746 36.7383 46.2891 36.543C46.0352 36.2695 45.5762 36.2598 45.3125 36.5234Z" fill="white"/>
<path d="M1.03516 42.8906C0.898438 43.0762 0.878906 43.5352 0.878906 45.9766V48.8379L1.12305 49.0723L1.35742 49.3164H4.17969C6.89453 49.3164 7.01172 49.3066 7.26562 49.1113L7.51953 48.916V45.957C7.51953 43.2129 7.50977 42.9883 7.34375 42.8418C7.1875 42.6953 6.81641 42.6758 4.16992 42.6758C1.19141 42.6758 1.18164 42.6758 1.03516 42.8906ZM6.15234 45.9961V47.9492H4.19922H2.24609V45.9961V44.043H4.19922H6.15234V45.9961Z" fill="white"/>
<path d="M42.6465 42.8516C42.5 43.0078 42.4805 43.3789 42.4805 45.9766V48.916L42.7344 49.1113C42.9883 49.3066 43.1055 49.3164 45.8203 49.3164H48.6426L48.877 49.0723L49.1211 48.8379V45.9766C49.1211 43.5352 49.1016 43.0762 48.9648 42.8906C48.8184 42.6758 48.8086 42.6758 45.8105 42.6758C43.0176 42.6758 42.793 42.6855 42.6465 42.8516ZM47.7539 45.9961V47.9492H45.8008H43.8477V45.9961V44.043H45.8008H47.7539V45.9961Z" fill="white"/>
<path d="M9.44338 45.4883C9.18948 45.7715 9.22854 46.2402 9.53127 46.4746C9.77541 46.6602 9.9219 46.6797 11.4746 46.6797C13.0274 46.6797 13.1739 46.6602 13.418 46.4746C13.711 46.2402 13.75 45.8594 13.5156 45.5273C13.3692 45.3223 13.3203 45.3125 11.4844 45.3125C9.78518 45.3125 9.5801 45.332 9.44338 45.4883Z" fill="white"/>
<path d="M14.9121 45.4297C14.8242 45.498 14.7168 45.6934 14.6875 45.8691C14.6386 46.123 14.6777 46.2305 14.873 46.4258C15.1269 46.6797 15.1367 46.6797 16.8164 46.6797C18.6426 46.6797 18.9453 46.6113 19.0429 46.1914C19.1113 45.918 18.9941 45.498 18.8183 45.3906C18.6133 45.2539 15.0976 45.3027 14.9121 45.4297Z" fill="white"/>
<path d="M20.2832 45.4883C20.1855 45.5859 20.1172 45.8008 20.1172 45.957C20.127 46.6016 20.3613 46.6797 22.3633 46.6797C24.0039 46.6797 24.0332 46.6797 24.2676 46.4355C24.5508 46.1621 24.5801 45.8398 24.3555 45.5273C24.209 45.3223 24.1602 45.3125 22.3242 45.3125C20.625 45.3125 20.4199 45.332 20.2832 45.4883Z" fill="white"/>
<path d="M25.6445 45.5273C25.4199 45.8398 25.4492 46.1621 25.7324 46.4355C25.9668 46.6797 25.9961 46.6797 27.6367 46.6797C29.6484 46.6797 29.8828 46.6016 29.8828 45.9375C29.8828 45.3516 29.7363 45.3125 27.6562 45.3125C25.8398 45.3125 25.791 45.3223 25.6445 45.5273Z" fill="white"/>
<path d="M31.123 45.4883C30.918 45.7129 30.9082 46.1816 31.0938 46.4453C31.2207 46.6113 31.3867 46.6309 33.0469 46.6602L34.8633 46.6895L35.1172 46.4355C35.3223 46.2305 35.3613 46.123 35.3125 45.8691C35.2051 45.3418 35.0977 45.3125 33.1055 45.3125C31.4648 45.3125 31.2598 45.332 31.123 45.4883Z" fill="white"/>
<path d="M36.4844 45.5273C36.25 45.8594 36.2891 46.2402 36.5821 46.4746C36.8262 46.6602 36.9727 46.6797 38.5254 46.6797C40.0781 46.6797 40.2246 46.6602 40.4688 46.4746C40.7813 46.2305 40.8203 45.7227 40.5469 45.4785C40.3906 45.332 40.0977 45.3125 38.4961 45.3125C36.6797 45.3125 36.6309 45.3223 36.4844 45.5273Z" fill="white"/>
</g>
<defs>
<clipPath id="clip0_13_42">
<rect width="50" height="50" fill="white"/>
</clipPath>
</defs>
</svg>
