<svg width="50" height="50" viewBox="0 0 50 50" fill="none" xmlns="http://www.w3.org/2000/svg">
<g clip-path="url(#clip0_16_25)">
<path d="M2.95898 7.61719C1.65039 8.08594 0.644531 9.10156 0.185547 10.4297C0.00976562 10.9473 0 11.4355 0 25C0 38.6426 0.00976562 39.043 0.185547 39.5801C0.644531 40.918 1.66016 41.9336 3.00781 42.3926C3.53516 42.5684 4.13086 42.5781 25 42.5781C45.8691 42.5781 46.4648 42.5684 46.9922 42.3926C48.3398 41.9336 49.3555 40.918 49.8145 39.5801C49.9902 39.043 50 38.6426 50 25C50 11.3574 49.9902 10.957 49.8145 10.4199C49.3555 9.08203 48.3398 8.06641 46.9922 7.60742C46.4648 7.43164 45.8789 7.42188 24.9609 7.43164C4.26758 7.43164 3.44727 7.44141 2.95898 7.61719ZM36.2598 18.9453C28.0762 27.0898 27.6074 27.5391 26.9336 27.8711C26.1035 28.2812 25.2734 28.418 24.3945 28.3008C24.0234 28.252 23.4961 28.0859 23.0664 27.8711C22.3926 27.5391 21.9238 27.0898 13.7402 18.9453L5.12695 10.3613H25H44.873L36.2598 18.9453ZM9.86328 19.375L15.4785 25L9.19922 31.2793L2.92969 37.5488V25.0586V12.5781L3.59375 13.1641C3.95508 13.4961 6.77734 16.2891 9.86328 19.375ZM47.0703 25.0684V37.5488L40.8008 31.2695L34.5215 25L40.7324 18.7988C44.1504 15.3906 46.9727 12.5977 47.002 12.5977C47.041 12.5977 47.0703 18.2129 47.0703 25.0684ZM18.6523 28.1836C21.0645 30.6152 22.5586 31.3672 25 31.3672C26.3184 31.3672 27.2461 31.1523 28.3008 30.625C29.1699 30.1855 29.8438 29.6484 31.2207 28.291L32.3145 27.2168L33.2715 28.1055C33.7988 28.5938 36.6211 31.3867 39.5508 34.3164L44.873 39.6484H25H5.12695L11.3379 33.4473C14.7559 30.0391 17.5977 27.2461 17.6465 27.2461C17.6855 27.2461 18.1445 27.666 18.6523 28.1836Z" fill="#9746fd"/>
</g>
<defs>
<clipPath id="clip0_16_25">
<rect width="50" height="50" fill="#9746fd"/>
</clipPath>
</defs>
</svg>
