<svg width="32" height="32" viewBox="0 0 32 32" fill="none" xmlns="http://www.w3.org/2000/svg">
<path fill-rule="evenodd" clip-rule="evenodd" d="M16.061 9.72196C15.4535 11.9895 13.643 13.5895 12.779 14.245C12.447 13.4505 11.8955 11.84 11.984 10.0725C11.994 9.87596 11.888 9.69196 11.7125 9.60246C11.5375 9.51246 11.326 9.53396 11.1725 9.65696C8.19451 12.04 5 14.6575 5 19C5 25.071 9.92902 30 16 30C22.0711 30 27.0001 25.071 27.0001 19C27.0001 10.5385 20.556 4.52744 16.248 2.06593C16.074 1.96643 15.857 1.98043 15.697 2.10193C15.5375 2.22344 15.466 2.42894 15.5155 2.62344C15.6165 3.01994 16.7795 7.03995 16.061 9.72196ZM17.027 9.98096C17.577 7.92695 17.118 5.13844 16.7725 3.56144C20.792 6.20045 26.0001 11.6065 26.0001 19C26.0001 24.519 21.5191 29 16 29C10.481 29 6 24.519 6 19C6 15.3765 8.48851 13.1065 10.997 11.0795C11.1575 13.392 12.1345 15.234 12.1345 15.234C12.1995 15.357 12.3125 15.447 12.447 15.483C12.581 15.519 12.724 15.4975 12.8415 15.4235C12.8415 15.4235 16.1215 13.3595 17.027 9.98096Z" fill="white"/>
</svg>
