<svg width="50" height="50" viewBox="0 0 50 50" fill="none" xmlns="http://www.w3.org/2000/svg">
<g clip-path="url(#clip0_16_22)">
<path d="M37.2461 0.39062C36.4941 0.585933 35.7715 0.917964 35.0586 1.39648C34.375 1.85546 4.04297 32.1973 3.80859 32.666C3.51563 33.2422 0 47.666 0 48.291C0 49.1602 0.644531 49.8047 1.51367 49.8047C1.92383 49.8047 17.0508 46.6602 17.4805 46.4844C17.6172 46.4258 24.707 39.4043 33.2227 30.8789C49.9316 14.1602 49.1797 14.9609 49.7168 13.3789C50.0488 12.4121 50.0977 10.5566 49.8145 9.52148C49.3652 7.90039 49.1992 7.67578 45.8594 4.33593C42.5098 0.986323 42.2461 0.791011 40.6641 0.39062C39.6777 0.136714 38.2031 0.136714 37.2461 0.39062ZM40.459 3.75C40.8789 3.96484 41.5918 4.6289 43.6816 6.72851C46.1621 9.21875 46.377 9.47265 46.582 10.0098C46.7578 10.498 46.7871 10.7422 46.7578 11.4258C46.6992 12.5781 46.4356 13.0469 45.127 14.375L44.0918 15.4394L39.4531 10.791L34.8145 6.15234L35.8398 5.12695C37.334 3.62304 37.7637 3.39843 39.1211 3.44726C39.7559 3.47656 40.0195 3.53515 40.459 3.75ZM37.1875 13.1152L41.7969 17.7246L40.8691 18.6523L39.9414 19.5801L35.3027 14.9414L30.6641 10.3027L31.5625 9.40429C32.0605 8.90625 32.4902 8.49609 32.5195 8.49609C32.5488 8.49609 34.6484 10.5762 37.1875 13.1152ZM21.5332 26.3672L11.2305 36.6699L9.50195 34.9316L7.76367 33.2031L18.0664 22.9004L28.3691 12.5977L30.0977 14.3262L31.8359 16.0644L21.5332 26.3672ZM27.3438 32.1777L17.041 42.4805L15.2832 40.7227L13.5254 38.9648L23.8281 28.6621L34.1309 18.3594L35.8887 20.1172L37.6465 21.875L27.3438 32.1777ZM13.7891 43.9551C13.7012 44.043 3.87695 46.1035 3.82813 46.0449C3.79883 46.0254 3.84766 45.7227 3.93555 45.3906C4.01367 45.0488 4.55078 42.8516 5.12695 40.498L6.18164 36.2109L10.0195 40.0488C12.1387 42.168 13.8281 43.916 13.7891 43.9551Z" fill="#9746fd"/>
</g>
<defs>
<clipPath id="clip0_16_22">
<rect width="50" height="50" fill="#9746fd"/>
</clipPath>
</defs>
</svg>
