<?xml version="1.0" standalone="no"?>
<!DOCTYPE svg PUBLIC "-//W3C//DTD SVG 20010904//EN"
 "http://www.w3.org/TR/2001/REC-SVG-20010904/DTD/svg10.dtd">
<svg version="1.0" xmlns="http://www.w3.org/2000/svg"
 width="512.000000pt" height="512.000000pt" viewBox="0 0 512.000000 512.000000"
 preserveAspectRatio="xMidYMid meet">
<metadata>
Created by potrace 1.16, written by Peter Selinger 2001-2019
</metadata>
<g transform="translate(0.000000,512.000000) scale(0.100000,-0.100000)"
fill="#ffffff" stroke="none">
<path d="M2277 5099 c-573 -100 -1051 -518 -1232 -1074 -74 -228 -70 -144 -70
-1465 0 -1121 1 -1190 19 -1275 67 -323 211 -591 440 -821 310 -309 686 -464
1126 -464 441 0 816 155 1126 464 229 230 372 497 440 821 18 85 19 154 19
1275 0 1121 -1 1190 -19 1275 -67 323 -211 591 -440 821 -241 240 -525 388
-853 444 -154 27 -403 26 -556 -1z m479 -354 c266 -46 476 -155 670 -349 179
-178 287 -377 341 -626 17 -79 18 -159 18 -1210 0 -1051 -1 -1131 -18 -1210
-54 -249 -162 -448 -341 -626 -241 -240 -535 -364 -866 -364 -331 0 -625 124
-866 364 -179 178 -287 377 -341 626 -17 79 -18 160 -18 1220 l0 1135 24 95
c63 251 159 420 340 601 189 188 396 296 656 343 107 19 292 19 401 1z"/>
<path d="M2516 4059 c-52 -12 -93 -43 -116 -89 -19 -37 -20 -60 -20 -436 0
-383 1 -399 21 -441 28 -59 87 -93 159 -93 72 0 131 34 159 93 20 42 21 57 21
438 0 363 -2 397 -19 435 -34 74 -119 112 -205 93z"/>
</g>
</svg>
