<svg width="50" height="50" viewBox="0 0 50 50" fill="none" xmlns="http://www.w3.org/2000/svg">
<g clip-path="url(#clip0_13_2)">
<path d="M12.3144 0.253959C11.748 0.732475 11.7676 0.859428 13.0469 4.06255C14.0625 6.60162 14.248 6.99224 14.5019 7.14849C14.8633 7.36333 15.4102 7.3731 15.7031 7.16802C15.957 6.99224 16.2109 6.53326 16.2109 6.25982C16.2109 6.14263 15.7031 4.77544 15.0781 3.22271C14.248 1.14263 13.8769 0.34185 13.7012 0.195365C13.3301 -0.0976034 12.6953 -0.0683066 12.3144 0.253959Z" fill="white"/>
<path d="M37.2852 0.263672C36.9434 0.625 34.8633 5.82031 34.8633 6.30859C34.8633 6.82617 35.3809 7.32422 35.918 7.32422C36.6504 7.32422 36.7773 7.12891 37.9785 4.12109C39.1992 1.06445 39.2676 0.771484 38.7793 0.283203C38.5352 0.0488281 38.4082 0 38.0176 0C37.6172 0 37.4902 0.0488281 37.2852 0.263672Z" fill="white"/>
<path d="M20.9472 8.83789L16.8457 11.416L14.2773 11.4258C11.5527 11.4258 11.2695 11.4648 11.0351 11.9043C10.9863 12.0117 10.9375 12.666 10.9375 13.3691C10.9375 14.1797 10.8984 14.6484 10.8398 14.6484C10.6445 14.6484 1.12303 20.8203 0.800762 21.1523L0.488262 21.4844V35.3516C0.488262 50.3027 0.468731 49.6289 0.966778 49.9023C1.09373 49.9707 8.83787 50 25 50C41.1621 50 48.9062 49.9707 49.0332 49.9023C49.5312 49.6289 49.5117 50.3027 49.5117 35.3516V21.4844L49.1992 21.1523C48.8769 20.8203 39.3554 14.6484 39.1601 14.6484C39.1015 14.6484 39.0625 14.1992 39.0625 13.3691C39.0625 12.666 39.0137 12.0117 38.9648 11.9043C38.7304 11.4844 38.4082 11.4258 36.2597 11.4258H34.2187L30.0781 8.83789C26.2012 6.41602 25.9082 6.25 25.4883 6.25977C25.0879 6.25977 24.7168 6.47461 20.9472 8.83789ZM28.1054 10.2051L29.9804 11.377L27.7929 11.4062C26.582 11.416 24.5801 11.416 23.3301 11.4062L21.0644 11.377L23.291 9.99023L25.5176 8.60352L25.8789 8.81836C26.0742 8.93555 27.0801 9.56055 28.1054 10.2051ZM36.914 25.2637V36.9629L35.2344 37.9785C34.3066 38.5352 33.5058 38.9941 33.4472 38.9941C33.3887 38.9941 31.4355 37.959 29.1015 36.6895C25.5566 34.7559 24.7949 34.375 24.4726 34.375C24.1308 34.375 23.4863 34.707 20.1562 36.6113L16.2305 38.8574L14.6582 37.9102L13.0859 36.9629V25.2637V13.5742H25H36.914V25.2637ZM10.918 31.0449L10.8887 35.6152L6.76756 33.1152L2.6367 30.6152V26.5527V22.5L6.76756 19.8438L10.8887 17.1875L10.918 21.8359C10.9277 24.3848 10.9277 28.5352 10.918 31.0449ZM43.3398 19.9023L47.3633 22.5V26.5527V30.6152L43.584 32.9102C41.5039 34.1699 39.6387 35.3027 39.4336 35.4297L39.0625 35.6543V26.416C39.0625 19.0527 39.0918 17.1875 39.1894 17.2461C39.248 17.2852 41.123 18.4766 43.3398 19.9023ZM8.52537 36.7676C12.8027 39.3652 13.9453 40.0977 13.8476 40.1855C13.7207 40.3027 2.74412 46.582 2.67576 46.582C2.65623 46.582 2.6367 43.5645 2.6367 39.8828V33.1836L2.86131 33.3203C2.9785 33.3984 5.52732 34.9512 8.52537 36.7676ZM47.3242 46.5527C47.3047 46.582 44.6777 45.1758 41.4941 43.4473C35.8887 40.3809 35.7226 40.2832 35.9472 40.1367C36.0644 40.0586 38.6816 38.4668 41.7383 36.6113L47.3144 33.2227L47.3437 39.873C47.3535 43.5254 47.3437 46.5332 47.3242 46.5527ZM34.7656 42.2852L44.9707 47.8516H25.0097C14.0332 47.8516 5.06834 47.8223 5.1074 47.793C5.21483 47.6758 24.3652 36.7383 24.4629 36.7285C24.5215 36.7188 29.1504 39.2285 34.7656 42.2852Z" fill="white"/>
<path d="M16.5723 15.7324C16.1328 15.9863 16.1133 16.2012 16.1133 19.8438C16.1133 23.623 16.1035 23.5742 16.6992 23.877C16.9434 24.0039 17.9004 24.0234 23.4375 24.0234C28.9746 24.0234 29.9317 24.0039 30.1758 23.877C30.7715 23.5742 30.7617 23.623 30.7617 19.8438C30.7617 16.1719 30.7422 15.9668 30.2832 15.7227C30.0195 15.5859 16.8164 15.5957 16.5723 15.7324ZM28.6133 19.8242V21.875H23.4375H18.2617V19.8242V17.7734H23.4375H28.6133V19.8242Z" fill="white"/>
<path d="M16.1328 27.0703L16.1621 28.1738H24.4629H32.7637L32.793 27.0703L32.8223 25.9766H24.4629H16.1035L16.1328 27.0703Z" fill="white"/>
<path d="M16.1133 31.25V32.3242H24.4629H32.8125V31.25V30.1758H24.4629H16.1133V31.25Z" fill="white"/>
<path d="M1.68945 6.75781C1.24023 6.875 0.976562 7.25586 0.976562 7.80273V8.24219L3.10547 10.3711L5.23438 12.5H5.72266C6.13281 12.5 6.25977 12.4512 6.48438 12.2266C6.81641 11.875 6.9043 11.3574 6.70898 10.9766C6.62109 10.8203 5.68359 9.82422 4.60938 8.75977C2.55859 6.70898 2.36328 6.58203 1.68945 6.75781Z" fill="white"/>
<path d="M47.666 6.74805C47.4121 6.79688 46.9043 7.24609 45.3906 8.75977C44.3164 9.82422 43.3789 10.8203 43.291 10.9766C43.0957 11.3574 43.1836 11.875 43.5156 12.2266C43.7402 12.4512 43.8672 12.5 44.2773 12.5H44.7656L46.8945 10.3711L49.0234 8.24219V7.79297C49.0234 7.03125 48.4375 6.58203 47.666 6.74805Z" fill="white"/>
</g>
<defs>
<clipPath id="clip0_13_2">
<rect width="50" height="50" fill="white"/>
</clipPath>
</defs>
</svg>
