<svg width="50" height="50" viewBox="0 0 50 50" fill="none" xmlns="http://www.w3.org/2000/svg">
<path d="M10.9766 1.8457C9.90234 2.39258 8.08594 4.0332 6.28906 6.11328C4.56055 8.0957 2.59766 10.8203 1.9043 12.1973C1.61133 12.793 1.5625 12.9785 1.5625 13.584C1.5625 14.3457 1.89453 16.1523 2.29492 17.5098C3.23242 20.7617 4.95117 24.3262 7.20703 27.7246C11.0254 33.4863 16.5137 38.9746 22.2754 42.793C25.6641 45.0488 29.248 46.7676 32.4902 47.7051C33.8477 48.1055 35.6543 48.4375 36.416 48.4375C37.0215 48.4375 37.207 48.3887 37.8027 48.0957C38.1738 47.9004 39.043 47.373 39.7168 46.9141C43.4766 44.3848 47.2559 40.8398 48.1641 38.9941C48.418 38.4668 48.457 38.3105 48.418 37.7637C48.3691 36.9531 47.9688 36.1621 47.3145 35.5762C47.0508 35.332 45.791 34.4434 44.5312 33.6035C40.3711 30.8301 37.5391 29.3262 35.8496 28.9941C34.4922 28.7305 33.6914 29.1992 31.8945 31.3086C31.2598 32.0508 30.6543 32.7441 30.5664 32.8418C30.4102 33.0176 30.3613 33.0078 29.3848 32.6172C26.0156 31.2891 22.8613 28.9551 20.5957 26.123C19.2773 24.4824 17.8711 22.0117 17.2559 20.2637L17.0117 19.5703L18.3789 18.4082C19.1309 17.7637 19.9609 16.9922 20.2246 16.6992C20.752 16.1133 21.0938 15.3418 21.0938 14.7461C21.0938 13.7207 20.0195 11.3184 18.2617 8.38867C17.0508 6.37695 14.9023 3.18359 14.3848 2.62695C13.8086 2.00195 13.0176 1.62109 12.207 1.58203C11.6504 1.55273 11.4941 1.58203 10.9766 1.8457Z" fill="#9746fd"/>
</svg>
