<svg width="50" height="50" viewBox="0 0 50 50" fill="none" xmlns="http://www.w3.org/2000/svg">
<g clip-path="url(#clip0_10_5)">
<path d="M11.25 8.49999C-1.95 18.65 -1.95 18.65 4.65 20.3C7.1 20.9 9.15 21.5 9.3 21.65C9.4 21.75 7.35 23.5 4.75 25.5C-1.45 30.25 -1.45 30.75 4.65 32.3C7.1 32.9 9.15 33.5 9.3 33.65C9.4 33.75 7.35 35.5 4.75 37.5C1.15 40.25 1.44505e-06 41.4 0.100001 42.15C0.250001 43.05 2.05 43.6 13.5 46.6C20.8 48.45 27.2 50 27.8 50C29.35 50 49.75 30.9 49.75 29.4C49.75 28.35 49.4 28.2 45.3 27.5L40.85 26.75L45.45 22.5C51.45 17.05 51.45 16.55 45.3 15.5L40.85 14.75L45.4 10.55C49.75 6.54999 50.9 4.79999 49.4 4.24999C48.1 3.79999 25.2 -8.19564e-06 23.75 -8.19564e-06C22.6 0.0499918 19.75 1.94999 11.25 8.49999ZM43.15 17.65L46.1 18.25L39.65 24.25C36.15 27.55 32 31.45 30.4 32.9L27.6 35.55L17.65 33C12.2 31.6 6.9 30.2 5.85 29.95L3.95 29.45L8.45 25.95L13 22.5L19.95 24.25C23.8 25.2 27.4 26 27.9 26C28.45 26 30.95 24 33.55 21.5C36.25 18.95 38.65 17.05 39.25 17.05C39.8 17.05 41.55 17.3 43.15 17.65ZM43.15 29.65L46.1 30.25L39.65 36.25C36.15 39.55 32 43.45 30.4 44.9L27.6 47.55L17.65 45C12.2 43.6 6.9 42.2 5.85 41.95L3.95 41.45L8.45 37.95L13 34.5L19.95 36.25C23.8 37.2 27.4 38 27.9 38C28.45 38 30.95 36 33.55 33.5C36.25 30.95 38.65 29.05 39.25 29.05C39.8 29.05 41.55 29.3 43.15 29.65Z" fill="white"/>
</g>
<defs>
<clipPath id="clip0_10_5">
<rect width="50" height="50" fill="white"/>
</clipPath>
</defs>
</svg>
