<svg width="50" height="50" viewBox="0 0 50 50" fill="none" xmlns="http://www.w3.org/2000/svg">
<g clip-path="url(#clip0_13_17)">
<path d="M2.31443 0.234375C1.28904 0.654297 0.488254 1.50391 0.146457 2.5293C0.0195043 2.93945 -2.69485e-05 5.32227 0.0195043 25.1465L0.0488012 47.3145L0.312473 47.8711C0.644504 48.5938 1.40622 49.3555 2.12888 49.6875L2.68552 49.9512H25H47.3144L47.8711 49.6875C48.5937 49.3555 49.3554 48.5938 49.6875 47.8711L49.9511 47.3145V25V2.68555L49.6875 2.12891C49.3554 1.40625 48.5937 0.644531 47.8711 0.3125L47.3144 0.0488281L25.0976 0.0292969L2.88083 0L2.31443 0.234375ZM47.1777 1.98242C47.4121 2.10938 47.7441 2.40234 47.9004 2.62695L48.1933 3.04688L48.2226 6.50391L48.2519 9.96094H25H1.75779V6.61133C1.75779 3.29102 1.75779 3.25195 1.98239 2.82227C2.11911 2.55859 2.39255 2.26562 2.67575 2.07031L3.1445 1.75781H24.9511H46.748L47.1777 1.98242ZM48.2226 29.3359L48.1933 46.9531L47.9004 47.373C47.7441 47.5977 47.4121 47.8906 47.1777 48.0176L46.748 48.2422H25H3.25193L2.82224 48.0176C2.58786 47.8906 2.2656 47.5977 2.09958 47.373L1.80661 46.9531L1.77732 29.3359L1.75779 11.7188H25H48.2422L48.2226 29.3359Z" fill="white"/>
<path d="M3.5644 3.56448C3.32026 3.79886 3.32026 3.79886 3.32026 5.8594C3.32026 8.60354 3.13471 8.42776 6.0351 8.37893C8.52534 8.33987 8.33979 8.52542 8.37885 6.03518C8.41791 4.00393 8.38862 3.79886 8.10541 3.51565C7.91987 3.33011 7.77338 3.32034 5.85932 3.32034C3.79877 3.32034 3.79877 3.32034 3.5644 3.56448ZM6.64057 5.8594V6.64065H5.85932H5.07807V5.8594V5.07815H5.85932H6.64057V5.8594Z" fill="white"/>
<path d="M10.2051 3.56445C9.96094 3.79883 9.96094 3.80859 9.96094 5.81055V7.83203L10.2441 8.11523L10.5273 8.39844H12.5H14.4727L14.7559 8.11523L15.0391 7.83203V5.81055C15.0391 3.11523 15.2539 3.32031 12.5 3.32031C10.4395 3.32031 10.4395 3.32031 10.2051 3.56445ZM13.2812 5.85938V6.64062H12.5H11.7188V5.85938V5.07812H12.5H13.2812V5.85938Z" fill="white"/>
<path d="M16.8945 3.51572C16.6113 3.79892 16.582 4.004 16.6211 6.03525C16.6601 8.52548 16.4746 8.33994 18.9648 8.379C19.9902 8.39853 20.9375 8.38876 21.0644 8.35947C21.1816 8.32041 21.3769 8.20322 21.4843 8.08603C21.6699 7.89072 21.6797 7.74423 21.6797 5.83994C21.6797 3.10556 21.8945 3.32041 19.1406 3.32041C17.2265 3.32041 17.08 3.33017 16.8945 3.51572ZM19.9218 5.85947V6.64072H19.1406H18.3593V5.85947V5.07822H19.1406H19.9218V5.85947Z" fill="white"/>
<path d="M4.38477 13.5645L4.10156 13.8574L4.12109 22.5488L4.15039 31.2402L4.375 31.4648L4.59961 31.6895H14.1699H23.75L23.9844 31.416L24.2188 31.1426V22.5V13.8477L23.9355 13.5645L23.6523 13.2812H14.1602H4.66797L4.38477 13.5645ZM22.4609 21.0156V26.9922L20.1855 24.7266C18.1445 22.6953 17.8809 22.4609 17.5879 22.4609C17.4121 22.4609 17.1875 22.5 17.0898 22.5586C16.9922 22.6074 15.957 23.7012 14.7852 24.9707C13.623 26.25 12.5879 27.3828 12.4902 27.4902C12.3047 27.6758 12.2852 27.6562 10.957 26.3379C9.63867 25.0293 9.58984 25 9.17969 25C8.75977 25 8.73047 25.0293 7.30469 26.4355L5.85938 27.8711V21.4551V15.0391H14.1602H22.4609V21.0156ZM22.4609 29.7559V29.9805H18.5254H14.5898L14.082 29.4629L13.5742 28.9453L15.5469 26.7773L17.5293 24.6191L20 27.0801C21.7578 28.8379 22.4609 29.5996 22.4609 29.7559ZM10.6445 28.5645L12.0605 29.9805H9.17969H6.29883L7.71484 28.5645C8.49609 27.7832 9.15039 27.1484 9.17969 27.1484C9.20898 27.1484 9.86328 27.7832 10.6445 28.5645Z" fill="white"/>
<path d="M9.95114 16.7285C8.64255 17.0996 7.78317 18.0469 7.5195 19.4141C7.2363 20.8496 7.96872 22.3145 9.32614 23.0371C9.76559 23.2617 9.92184 23.291 10.8398 23.291C12.0215 23.291 12.4218 23.1445 13.164 22.4219C14.8632 20.8008 14.375 17.9004 12.2558 16.9336C11.6113 16.6406 10.5957 16.543 9.95114 16.7285ZM11.4355 18.5156C12.0215 18.7598 12.4023 19.3262 12.4023 19.9707C12.4023 21.4941 10.5273 22.1582 9.56051 20.9668C8.92575 20.1758 9.23825 18.9844 10.1953 18.5449C10.6933 18.3203 10.9179 18.3203 11.4355 18.5156Z" fill="white"/>
<path d="M26.0645 13.5645L25.7812 13.8477V22.5V31.1426L26.0156 31.416L26.25 31.6895H35.8301H45.4004L45.625 31.4648L45.8496 31.2402L45.8789 22.5488L45.8984 13.8574L45.6152 13.5645L45.332 13.2812H35.8398H26.3477L26.0645 13.5645ZM44.1406 22.5098V29.9805H35.8398H27.5391V22.5098V15.0391H35.8398H44.1406V22.5098Z" fill="white"/>
<path d="M32.9395 18.3594C32.4512 18.5547 32.4219 18.7695 32.4219 22.4609C32.4219 25.1855 32.4512 25.957 32.5586 26.2109C32.7051 26.5527 32.959 26.6895 33.4082 26.6797C33.7109 26.6699 39.6094 23.3398 39.873 23.0371C40.1074 22.7441 40.0879 22.2266 39.8242 21.9336C39.5312 21.6113 33.623 18.2617 33.3594 18.2715C33.2422 18.2715 33.0566 18.3105 32.9395 18.3594ZM35.9375 21.6797C36.6113 22.0605 37.1973 22.4121 37.2363 22.4512C37.2754 22.5 36.709 22.8711 35.9668 23.291C35.2246 23.7109 34.5215 24.1211 34.4043 24.1992L34.1797 24.3359V22.5195V20.6934L34.4531 20.8398C34.5996 20.918 35.2637 21.2891 35.9375 21.6797Z" fill="white"/>
<path d="M4.38477 33.584L4.10156 33.8672V39.9414C4.10156 46.1719 4.11133 46.2695 4.48242 46.5527C4.59961 46.6504 6.83594 46.6699 14.1699 46.6797C23.418 46.6797 23.7207 46.6699 23.9355 46.4941L24.1699 46.3086L24.1992 40.2148C24.209 36.875 24.1992 34.0332 24.1699 33.916C24.1406 33.7988 24.0234 33.6035 23.9062 33.4961C23.6914 33.3008 23.6035 33.3008 14.1797 33.3008H4.66797L4.38477 33.584ZM22.4609 39.9902V44.9219H14.1602H5.85938V39.9902V35.0586H14.1602H22.4609V39.9902Z" fill="white"/>
<path d="M8.54487 37.7442C8.22261 38.0567 8.22261 38.5645 8.53511 38.9356L8.76948 39.2091L11.8066 39.2384C15.2929 39.2774 15.5664 39.2384 15.7812 38.711C15.9472 38.3204 15.8886 38.047 15.5957 37.7149C15.4003 37.5001 15.3906 37.5001 12.0898 37.5001H8.77925L8.54487 37.7442Z" fill="white"/>
<path d="M17.6855 37.7539C17.4121 38.1055 17.4218 38.5938 17.7148 38.9355C17.9394 39.1895 17.998 39.209 18.7304 39.209C19.4238 39.209 19.541 39.1797 19.7656 38.9746C20.0878 38.6719 20.1074 38.125 19.8144 37.7539C19.6289 37.5098 19.5703 37.5 18.7499 37.5C17.9296 37.5 17.871 37.5098 17.6855 37.7539Z" fill="white"/>
<path d="M8.54487 41.0645C8.22261 41.377 8.22261 41.8848 8.53511 42.2559C8.75972 42.5098 8.81831 42.5293 9.55073 42.5293C10.2441 42.5293 10.3613 42.5 10.5859 42.2949C10.7812 42.1094 10.8398 41.9629 10.8398 41.6406C10.8398 41.0059 10.5468 40.8203 9.55073 40.8203C8.86714 40.8203 8.74995 40.8496 8.54487 41.0645Z" fill="white"/>
<path d="M12.7148 41.0449C12.2754 41.5136 12.5 42.3828 13.1054 42.5292C13.2324 42.5585 14.7265 42.5781 16.4257 42.5585L19.5117 42.5292L19.7656 42.2949C20.1074 41.9726 20.1172 41.3964 19.7754 41.0644L19.541 40.8203H16.2304H12.9199L12.7148 41.0449Z" fill="white"/>
<path d="M26.0938 33.4961C25.9766 33.6035 25.8594 33.7988 25.8301 33.916C25.8008 34.0332 25.791 36.875 25.8008 40.2148L25.8301 46.3086L26.0645 46.4941C26.2793 46.6699 26.582 46.6797 35.8301 46.6797C43.1641 46.6699 45.4004 46.6504 45.5176 46.5527C45.8887 46.2695 45.8984 46.1719 45.8984 39.9414V33.8672L45.6152 33.584L45.332 33.3008H35.8203C26.3965 33.3008 26.3086 33.3008 26.0938 33.4961ZM44.1406 39.9902V44.9219H35.8398H27.5391V39.9902V35.0586H35.8398H44.1406V39.9902Z" fill="white"/>
<path d="M30.1855 37.7539C29.9121 38.1055 29.9218 38.5938 30.2148 38.9355L30.4492 39.209H33.7207H36.9921L37.246 38.9746C37.5878 38.6523 37.5976 38.0176 37.2753 37.7148C37.0507 37.5 37.0019 37.5 33.7207 37.5H30.3808L30.1855 37.7539Z" fill="white"/>
<path d="M39.3749 37.7246C39.0624 38.0566 39.082 38.6621 39.414 38.9746C39.6386 39.1797 39.7558 39.209 40.4492 39.209C41.1816 39.209 41.2402 39.1895 41.4648 38.9355C41.7773 38.5645 41.7773 38.0566 41.455 37.7441C41.2402 37.5195 41.1425 37.5 40.4003 37.5C39.6777 37.5 39.5605 37.5293 39.3749 37.7246Z" fill="white"/>
<path d="M30.2246 41.0645C29.8828 41.3965 29.8926 41.9727 30.2344 42.2949C30.459 42.5 30.5762 42.5293 31.25 42.5293C31.9238 42.5293 32.041 42.5 32.2656 42.2949C32.6074 41.9727 32.6172 41.3965 32.2754 41.0645C32.0605 40.8496 31.9629 40.8203 31.25 40.8203C30.5371 40.8203 30.4394 40.8496 30.2246 41.0645Z" fill="white"/>
<path d="M34.4043 41.0351C34.1113 41.3574 34.0527 41.6406 34.2089 42.0214C34.4433 42.5683 34.58 42.5878 38.0761 42.5585L41.2304 42.5292L41.4648 42.2558C41.7773 41.8847 41.7773 41.3769 41.455 41.0644L41.2207 40.8202H37.9101C34.6093 40.8202 34.5996 40.8202 34.4043 41.0351Z" fill="white"/>
</g>
<defs>
<clipPath id="clip0_13_17">
<rect width="50" height="50" fill="white"/>
</clipPath>
</defs>
</svg>
