<svg width="50" height="50" viewBox="0 0 50 50" fill="none" xmlns="http://www.w3.org/2000/svg">
<g clip-path="url(#clip0_17_27)">
<path d="M0.546816 0.117188C0.585879 0.175781 4.87299 6.42578 10.0781 13.9941C15.2734 21.5625 19.5312 27.7734 19.5312 27.793C19.5312 27.8125 1.96283 48.2715 0.60541 49.8242C0.468691 49.9902 0.576113 50 2.69525 50H4.94135L13.2421 40.3418L21.5527 30.6934L28.1835 40.3418L34.8144 50H42.1679C48.0273 50 49.5117 49.9707 49.4433 49.873C49.4042 49.8145 44.9902 43.3691 39.6289 35.5664C34.2578 27.7637 29.8535 21.3281 29.8242 21.2598C29.7851 21.1426 32.1581 18.3594 44.6972 3.7793L47.9589 0H45.7128H43.4667L35.6249 9.12109C31.3085 14.1309 27.7538 18.2227 27.7246 18.2031C27.6953 18.1934 24.8632 14.082 21.4257 9.0918L15.1855 0H7.83197C2.15814 0 0.497988 0.0292969 0.546816 0.117188ZM27.8808 24.5801C36.0449 36.2695 42.8906 46.0645 43.0956 46.3574L43.4667 46.875H40.2148L36.9628 46.8652L22.1191 25.625C13.955 13.9355 7.10932 4.14062 6.90424 3.84766L6.52338 3.32031H9.7851L13.0371 3.33008L27.8808 24.5801Z" fill="white"/>
</g>
<defs>
<clipPath id="clip0_17_27">
<rect width="50" height="50" fill="white"/>
</clipPath>
</defs>
</svg>
