<svg width="50" height="50" viewBox="0 0 50 50" fill="none" xmlns="http://www.w3.org/2000/svg">
<path d="M20.0521 8.69792C15.9896 10.8333 14.0625 14.0625 14.0625 18.75C14.0625 22.1354 15.1562 25 17.1354 26.7708L18.2292 27.7604L15.9375 29.1667C12.3958 31.4583 9.42708 36.4583 9.375 40.2083C9.375 42.1354 9.42708 42.1875 11.1979 42.1875C12.8125 42.1875 13.0208 42.0312 13.0208 40.7292C13.0729 38.6979 14.6875 35.4167 16.6146 33.5938L18.2292 32.0833L19.0625 33.2292C21.5625 36.8229 28.4375 36.8229 30.9375 33.2292L31.7708 32.0833L33.3854 33.5938C35.3125 35.4167 36.9271 38.6979 36.9792 40.7292C36.9792 42.0312 37.1875 42.1875 38.8021 42.1875C40.5729 42.1875 40.625 42.1354 40.625 40.2083C40.5729 36.4583 37.6042 31.4583 34.0625 29.1667L31.7708 27.7604L32.8646 26.7708C36.9271 23.125 37.0312 15.3125 33.125 11.0417C30.3646 7.91667 23.6979 6.77084 20.0521 8.69792ZM29.0104 12.5C33.5417 15.2083 33.3333 22.8125 28.6979 25.2604C23.5937 27.8646 17.7083 24.4271 17.7083 18.8542C17.7083 14.4271 20.625 11.4583 25 11.4583C26.4062 11.4583 28.0208 11.875 29.0104 12.5Z" fill="white"/>
</svg>
