<svg width="50" height="50" viewBox="0 0 50 50" fill="none" xmlns="http://www.w3.org/2000/svg">
<path d="M22.9493 0.0683532C21.2403 0.341791 19.7559 0.849603 18.6133 1.5332C16.8457 2.58788 15.2344 4.18945 14.1797 5.92773C13.6328 6.82617 13.1446 8.07617 12.8711 9.22851C12.5879 10.4492 12.5196 12.8906 12.7344 14.1211C13.3594 17.7148 15.5176 20.7617 18.7696 22.6269C21.9727 24.4629 26.2403 24.6191 29.7461 23.0371C30.918 22.5098 32.0215 21.6992 33.1641 20.5664C35.7227 18.0078 36.8457 15.0977 36.6895 11.5039C36.543 8.31054 35.459 5.80078 33.2325 3.54492C31.4551 1.73828 29.2383 0.576166 26.7871 0.146478C26.0157 0.00975943 23.5938 -0.0390687 22.9493 0.0683532Z" fill="#9746fd"/>
<path d="M13.7695 24.1798C12.5391 24.3653 11.7188 24.6094 10.7227 25.1075C8.81836 26.045 7.38281 27.5977 6.25 29.9317C4.82422 32.8712 4.10156 36.4747 4.10156 40.7325C4.10156 43.3106 4.28711 44.2286 5.10742 45.8497C5.41016 46.4454 5.72266 46.8458 6.39648 47.5196C7.35352 48.4864 8.18359 49.0333 9.3457 49.4434C10.957 50.0294 10.4199 50.0098 25.3516 49.9805L39.0137 49.9512L39.8438 49.6973C40.8984 49.3653 41.4551 49.1212 42.1582 48.6719C43.7891 47.6368 44.9902 45.9962 45.5078 44.1407C45.8203 42.9786 45.9082 41.5919 45.8008 39.4532C45.3125 29.8829 41.6797 24.4923 35.498 24.1505C34.1699 24.0821 34.1504 24.0821 31.875 25.5469C30.1172 26.67 28.8965 27.2266 27.2754 27.6465C26.0547 27.9688 23.8672 27.9688 22.6562 27.6563C20.9277 27.2071 19.7656 26.67 18.0078 25.5274C17.3633 25.1075 16.5723 24.6192 16.2305 24.4434C15.6641 24.1505 15.5371 24.1212 14.8145 24.1309C14.375 24.1407 13.9062 24.1602 13.7695 24.1798Z" fill="#9746fd"/>
</svg>
