<svg width="50" height="50" viewBox="0 0 50 50" fill="none" xmlns="http://www.w3.org/2000/svg">
<g clip-path="url(#clip0_13_12)">
<path d="M3.32031 0.224609C1.78711 0.751953 0.605469 1.97266 0.15625 3.50586C0.0195312 3.98438 0 5.67383 0 19.834C0 35.2832 0 35.6348 0.195312 36.2402C0.673828 37.7734 1.95312 39.0332 3.50586 39.4922C3.97461 39.6289 5.00977 39.6484 12.0801 39.6484H20.1172V41.8848V44.1211L19.0234 44.1602C17.7246 44.209 17.1191 44.4141 16.2109 45.0781C15.0391 45.9375 14.3652 47.1875 14.2773 48.6328C14.2383 49.4336 14.248 49.4727 14.502 49.7363L14.7754 50H25H35.2246L35.4883 49.7461C35.7129 49.5117 35.7422 49.4043 35.7422 48.8281C35.7422 46.8066 34.2578 44.8926 32.2363 44.2969C31.9141 44.1992 31.3379 44.1406 30.791 44.1406H29.8828V41.8945V39.6484H37.9297C45.6738 39.6484 45.9961 39.6387 46.5918 39.4531C48.125 38.9746 49.3848 37.6953 49.8438 36.1426C49.9805 35.6641 50 33.9844 50 19.8242C50 5.66406 49.9805 3.98438 49.8438 3.50586C49.3848 1.95312 48.125 0.673828 46.5918 0.195312C45.9863 0 45.625 0 24.9609 0L3.95508 0.00976562L3.32031 0.224609ZM46.1914 2.25586C46.9727 2.61719 47.3145 2.95898 47.6758 3.69141L47.998 4.3457L48.0273 17.1094L48.0566 29.8828H45.8008H43.5547V18.418V6.96289L43.3008 6.69922L43.0371 6.44531H38.6719H34.3066L34.043 6.69922L33.7891 6.96289V18.418V29.8828H31.3477H28.9062V28.584C28.9062 26.416 28.6035 22.4902 28.2617 20.1465L28.1152 19.1602L28.6621 18.6133C29.9414 17.3438 30.4102 15.2344 29.8047 13.5352C29.6875 13.2227 28.8867 11.7285 28.0176 10.2148C25.8301 6.41602 25.8594 6.46484 25.4492 6.38672C25.0098 6.30859 24.668 6.39648 24.4434 6.63086C24.2188 6.88477 20.9863 12.4902 20.6641 13.1836C20.1953 14.209 20.127 15.3711 20.4785 16.6016C20.6738 17.334 20.9082 17.7441 21.4551 18.4082L21.9238 18.9648L21.7578 20.1465C21.3867 22.6953 21.0938 26.4551 21.0938 28.584V29.8828H18.6523H16.2109V22.3633V14.8438L14.248 10.9082C13.1641 8.75 12.168 6.86523 12.0312 6.70898C11.8262 6.49414 11.6992 6.44531 11.3281 6.44531C10.957 6.44531 10.8301 6.49414 10.625 6.70898C10.4883 6.86523 9.49219 8.75 8.4082 10.9082L6.44531 14.8438V22.3633V29.8828H4.19922H1.94336L1.97266 17.1094L2.00195 4.3457L2.25586 3.80859C2.39258 3.51562 2.61719 3.13477 2.76367 2.97852C3.08594 2.58789 3.89648 2.14844 4.47266 2.05078C4.72656 2.01172 14.0918 1.98242 25.293 1.99219L45.6543 2.00195L46.1914 2.25586ZM41.6016 9.375V10.3516H40.8789C40.2344 10.3516 40.1367 10.3809 39.9023 10.6055C39.541 10.9766 39.541 11.6797 39.9023 12.0508C40.1367 12.2754 40.2344 12.3047 40.8789 12.3047H41.6016V13.7695V15.2344H40.8789C40.2344 15.2344 40.1367 15.2637 39.9023 15.4883C39.6973 15.6934 39.6484 15.8398 39.6484 16.2109C39.6484 16.582 39.6973 16.7285 39.9023 16.9336C40.1367 17.1582 40.2344 17.1875 40.8789 17.1875H41.6016V18.6523V20.1172H40.8789C40.2344 20.1172 40.1367 20.1465 39.9023 20.3711C39.6973 20.5762 39.6484 20.7227 39.6484 21.0938C39.6484 21.4648 39.6973 21.6113 39.9023 21.8164C40.1367 22.041 40.2344 22.0703 40.8789 22.0703H41.6016V24.0234V25.9766H40.8789C40.2344 25.9766 40.1367 26.0059 39.9023 26.2305C39.6973 26.4355 39.6484 26.582 39.6484 26.9531C39.6484 27.3242 39.6973 27.4707 39.9023 27.6758C40.1367 27.9004 40.2344 27.9297 40.8789 27.9297H41.6016V28.9062V29.8828H38.6719H35.7422V19.1406V8.39844H38.6719H41.6016V9.375ZM26.543 11.8164C27.2363 13.0273 27.8613 14.1895 27.9297 14.3945C28.0859 14.8828 28.0078 15.7617 27.7539 16.3379C27.5 16.9043 26.8652 17.5391 26.2793 17.8027C25.6543 18.0957 24.6289 18.0859 24.0234 17.793C22.7441 17.1777 22.0117 15.6641 22.3926 14.4336C22.5684 13.8574 25.1074 9.44336 25.2051 9.54102C25.2441 9.58984 25.8496 10.6055 26.543 11.8164ZM12.4805 12.0605L13.5742 14.2578H11.3281H9.08203L10.1758 12.0605C10.7812 10.8496 11.2988 9.86328 11.3281 9.86328C11.3574 9.86328 11.875 10.8496 12.4805 12.0605ZM10.3516 23.0469V29.8828H9.375H8.39844V23.0469V16.2109H9.375H10.3516V23.0469ZM14.2578 23.0469V29.8828H13.2812H12.3047V23.0469V16.2109H13.2812H14.2578V23.0469ZM25.2637 20.0586H26.1523L26.2109 20.332C26.2988 20.7715 26.6406 23.9844 26.709 25.0195L26.7773 25.9766H25.0098H23.2422V25.752C23.252 25.2441 23.5352 22.3145 23.6914 21.1719L23.8672 19.9316L24.1113 20C24.248 20.0293 24.7656 20.0684 25.2637 20.0586ZM26.8555 28.9062V29.8828H25H23.1445V28.9062V27.9297H25H26.8555V28.9062ZM48.0273 33.584C47.9883 35.3125 47.9883 35.332 47.6758 35.9668C47.3145 36.6895 46.9629 37.0312 46.1914 37.3926L45.6543 37.6465H25H4.3457L3.80859 37.3926C3.03711 37.0312 2.68555 36.6895 2.32422 35.9668C2.01172 35.332 2.01172 35.3125 1.97266 33.584L1.93359 31.8359H25H48.0664L48.0273 33.584ZM27.9297 41.8945V44.1406H25H22.0703V41.8945V39.6484H25H27.9297V41.8945ZM31.1914 46.1914C32.168 46.3477 32.9395 46.8555 33.3105 47.5781C33.4082 47.7832 33.4961 47.9688 33.4961 47.998C33.4961 48.0273 29.6777 48.0469 25 48.0469C20.332 48.0469 16.5039 48.0078 16.5039 47.9688C16.5039 47.9297 16.6309 47.6855 16.7871 47.4414C17.1973 46.7969 17.9199 46.3281 18.7402 46.1914C19.4043 46.084 30.5078 46.0742 31.1914 46.1914Z" fill="white"/>
<path d="M20.3711 34.043C20.166 34.248 20.1172 34.3945 20.1172 34.7656C20.1172 35.1367 20.166 35.2832 20.3711 35.4883L20.6348 35.7422H24.0234H27.4121L27.6758 35.4883C27.8809 35.2832 27.9297 35.1367 27.9297 34.7656C27.9297 34.3945 27.8809 34.248 27.6758 34.043L27.4121 33.7891H24.0234H20.6348L20.3711 34.043Z" fill="white"/>
<path d="M30.1367 34.043C29.9316 34.248 29.8828 34.3945 29.8828 34.7656C29.8828 35.1367 29.9316 35.2832 30.1367 35.4883C30.3418 35.6934 30.4883 35.7422 30.8594 35.7422C31.2305 35.7422 31.377 35.6934 31.582 35.4883C31.7871 35.2832 31.8359 35.1367 31.8359 34.7656C31.8359 34.3945 31.7871 34.248 31.582 34.043C31.377 33.8379 31.2305 33.7891 30.8594 33.7891C30.4883 33.7891 30.3418 33.8379 30.1367 34.043Z" fill="white"/>
</g>
<defs>
<clipPath id="clip0_13_12">
<rect width="50" height="50" fill="white"/>
</clipPath>
</defs>
</svg>
