<svg width="50" height="50" viewBox="0 0 50 50" fill="none" xmlns="http://www.w3.org/2000/svg">
<path d="M21.6309 7.28516C15.2539 7.44141 5.66406 8.22266 4.31641 8.69141C2.51953 9.32617 0.996094 11.0938 0.693359 12.8906C0.576172 13.584 0.371094 15.6543 0.175781 18.1152C0 20.2441 0 29.7559 0.175781 31.8848C0.371094 34.3457 0.576172 36.416 0.693359 37.1094C0.996094 38.9062 2.51953 40.6738 4.31641 41.3086C5.2832 41.6504 12.4219 42.3242 17.7734 42.5879C20.8594 42.7441 29.1406 42.7441 32.2266 42.5879C37.3828 42.334 44.6973 41.6504 45.6543 41.3281C47.4316 40.7227 49.0039 38.9062 49.3066 37.1094C49.4238 36.416 49.6289 34.3457 49.8242 31.8848C50 29.7559 50 20.2441 49.8242 18.1152C49.6289 15.6543 49.4238 13.584 49.3066 12.8906C49.0039 11.0938 47.4316 9.27734 45.6543 8.67188C44.6973 8.34961 37.1484 7.64648 32.373 7.42188C30.0293 7.32422 23.6523 7.23633 21.6309 7.28516ZM33.1055 25C33.1055 25.0391 30.3613 26.8945 27.002 29.1309L20.8984 33.2031V25V16.7969L27.002 20.8691C30.3613 23.1055 33.1055 24.9609 33.1055 25Z" fill="white"/>
</svg>
